<?xml version="1.0" standalone="no"?>
<!DOCTYPE svg PUBLIC "-//W3C//DTD SVG 20010904//EN"
 "http://www.w3.org/TR/2001/REC-SVG-20010904/DTD/svg10.dtd">
<svg version="1.0" xmlns="http://www.w3.org/2000/svg"
 width="1536.000000pt" height="1024.000000pt" viewBox="0 0 1536.000000 1024.000000"
 preserveAspectRatio="xMidYMid meet">

<g transform="translate(0.000000,1024.000000) scale(0.100000,-0.100000)"
fill="#000000" stroke="none">
<path d="M13350 6655 c-9 -11 -13 -104 -14 -362 l-1 -348 -48 -7 c-128 -18
-188 -119 -141 -237 12 -30 13 -44 5 -60 -18 -34 -34 -30 160 -34 67 -2 80 1
116 25 25 17 49 44 63 73 21 43 22 52 11 100 -9 40 -21 62 -47 84 -19 17 -34
32 -34 33 0 5 364 0 650 -9 l265 -8 3 -28 c2 -16 -6 -47 -17 -70 -19 -37 -19
-43 -6 -53 8 -6 15 -23 15 -36 0 -35 28 -65 70 -76 49 -12 44 -33 -13 -53 -74
-27 -94 -44 -123 -108 -21 -46 -33 -60 -53 -64 -14 -3 -27 -4 -29 -2 -2 1 -24
43 -50 91 l-47 89 -155 0 c-149 0 -155 -1 -158 -21 -2 -11 22 -74 53 -139 35
-74 54 -128 52 -144 l-4 -26 -244 -3 c-134 -1 -250 0 -257 3 -10 4 -3 17 22
47 35 41 46 68 26 68 -5 0 -10 -9 -10 -20 0 -11 -7 -23 -15 -27 -9 -3 -30 -26
-47 -52 -69 -101 -203 -221 -245 -221 -10 1 -28 9 -40 19 -38 31 -122 150
-160 225 -20 39 -38 65 -40 58 -9 -23 155 -282 179 -282 4 0 8 -4 8 -9 0 -4
-27 -11 -61 -15 -41 -5 -85 -20 -136 -47 -42 -21 -89 -39 -105 -39 -25 0 -28
3 -28 35 0 39 -49 200 -87 285 -22 50 -23 59 -12 100 31 115 92 190 154 190
19 0 74 -14 122 -32 121 -43 143 -67 183 -198 47 -153 40 -147 106 -87 101 94
139 132 150 151 6 12 15 17 23 12 9 -6 9 -13 -3 -31 -8 -12 -12 -25 -9 -29 18
-17 46 -1 81 47 21 28 46 58 55 66 21 17 22 47 2 55 -9 3 -29 -13 -56 -44 -32
-38 -49 -50 -70 -50 -20 0 -33 -8 -46 -30 -22 -38 -173 -164 -183 -153 -4 4
-19 47 -33 94 -32 104 -60 147 -115 178 -33 18 -42 28 -40 45 2 15 11 22 30
24 30 4 68 44 68 73 0 10 7 22 16 27 14 8 14 14 -2 61 l-17 52 28 28 c34 36
31 72 -7 82 -15 4 -39 17 -54 28 -22 17 -41 21 -105 21 -68 0 -81 -3 -107 -25
-16 -13 -39 -48 -51 -76 l-22 -51 35 -75 c49 -103 46 -145 -12 -156 -56 -11
-113 -96 -136 -203 -5 -23 -14 -32 -39 -40 -24 -7 -33 -15 -35 -35 -3 -29 110
-359 116 -340 2 7 -5 38 -16 69 -12 31 -37 103 -57 159 -21 57 -35 110 -31
118 9 25 50 18 68 -12 24 -42 98 -278 98 -313 l0 -30 361 0 c355 0 361 0 366
-20 7 -26 29 -20 25 6 -5 30 -49 92 -69 97 -10 3 -66 8 -124 12 l-107 7 77 73
c66 64 78 72 88 58 9 -12 40 -16 142 -21 l131 -5 0 -113 0 -114 -40 0 c-22 0
-40 -4 -40 -10 0 -5 23 -10 50 -10 l50 0 0 125 0 125 30 0 29 0 3 -126 3 -126
43 -2 c29 -2 42 2 42 11 0 8 -13 13 -34 13 -30 0 -34 4 -40 31 -8 40 -8 147 0
177 6 22 8 22 195 22 l189 0 0 -68 c0 -68 0 -68 -35 -85 -36 -17 -75 -69 -75
-99 0 -14 9 -15 63 -11 35 3 67 11 73 19 9 11 78 14 354 16 l342 3 55 171 c52
159 55 173 42 200 -8 16 -23 30 -34 32 -31 6 -45 22 -45 52 0 93 -88 202 -162
199 -20 0 -19 -2 7 -11 74 -26 125 -93 140 -184 l6 -41 -112 -5 c-110 -6 -114
-7 -140 -36 -23 -25 -68 -148 -124 -339 -3 -13 -11 -23 -16 -23 -18 0 -84 38
-103 59 -18 20 -18 24 -3 83 9 35 19 81 23 103 4 22 15 51 24 65 31 44 51 90
40 90 -6 0 -14 -10 -19 -23 -16 -41 -61 -87 -86 -87 -34 0 -74 20 -80 41 -12
36 69 214 114 252 37 31 145 57 238 57 39 0 63 4 55 8 -7 5 -15 24 -18 44 -5
27 1 47 25 90 78 138 35 253 -101 273 l-48 7 0 153 c0 130 -2 154 -16 159 -9
3 -65 6 -125 6 l-109 0 0 149 c0 123 -3 152 -16 165 -13 14 -67 16 -433 16
-358 0 -420 -2 -431 -15z m858 -22 c3 -10 -87 -13 -427 -13 -237 0 -431 4
-431 8 0 5 3 12 7 15 3 4 196 6 426 5 326 -2 421 -6 425 -15z m0 -165 l3 -128
-31 0 -30 0 0 100 0 100 -349 0 c-193 0 -352 -3 -354 -7 -3 -5 -2 -115 1 -245
l5 -238 168 0 169 0 0 -55 0 -55 -215 0 -215 0 0 330 0 330 423 -2 422 -3 3
-127z m-78 -37 l0 -89 -313 -7 c-172 -4 -321 -6 -332 -4 -18 4 -20 14 -23 97
l-3 92 336 0 335 0 0 -89z m-497 -226 c2 -60 2 -118 -1 -127 -4 -15 -16 -18
-82 -18 l-77 0 -6 68 c-9 89 -9 177 0 186 4 4 42 5 85 4 l78 -3 3 -110z m155
78 l-3 -37 -57 3 c-54 2 -58 1 -58 -19 0 -20 4 -22 60 -18 52 3 60 1 60 -14 0
-15 -10 -18 -60 -18 -48 0 -60 -3 -60 -16 0 -13 10 -15 60 -12 l61 3 -3 -45
-3 -45 -67 -3 -68 -3 2 123 c1 68 3 126 5 131 2 4 33 7 69 7 l65 0 -3 -37z
m679 22 c2 -7 -99 -9 -294 -7 -163 2 -307 1 -320 -3 -23 -5 -23 -7 -23 -165 0
-150 1 -160 20 -170 14 -7 97 -10 243 -9 175 2 222 -1 222 -11 0 -10 -51 -12
-245 -11 -139 1 -249 6 -255 12 -14 14 -19 318 -6 352 l11 27 321 -2 c204 -2
324 -7 326 -13z m-466 -62 c0 -25 1 -25 8 -8 5 11 7 22 5 25 -1 3 27 3 64 -2
37 -4 129 -7 206 -7 l139 -1 -7 -32 c-3 -17 -9 -34 -12 -37 -3 -3 -89 -7 -190
-9 -165 -3 -210 -10 -171 -25 7 -3 33 -1 58 4 63 12 157 11 165 -2 4 -7 20 -8
41 -4 20 3 53 3 74 0 l39 -7 0 -58 0 -58 -36 -6 c-19 -4 -42 -16 -51 -26 -16
-18 -33 -19 -244 -19 -221 1 -228 1 -235 21 -3 11 -2 23 4 27 12 7 21 131 10
131 -10 0 -11 104 -1 113 3 4 35 7 70 7 62 0 63 0 64 -27z m459 -183 c0 -32
-4 -40 -17 -39 -11 0 -13 3 -5 6 6 2 12 20 12 39 0 19 2 34 5 34 3 0 5 -18 5
-40z m-1044 -161 c40 -24 74 -84 74 -129 0 -108 -151 -196 -249 -146 -15 8
-38 12 -51 9 -20 -5 -22 -3 -16 12 4 11 -2 40 -15 71 -20 48 -21 58 -10 96 15
48 59 94 105 108 45 14 122 4 162 -21z m-357 2 c24 -15 3 -50 -37 -61 -45 -12
-69 -13 -76 -1 -3 4 13 14 35 20 23 7 39 15 36 18 -3 2 -33 -5 -67 -18 -47
-17 -58 -24 -46 -31 27 -15 18 -26 -20 -25 -32 1 -34 2 -18 14 10 7 14 13 10
13 -4 0 -23 -12 -42 -26 -19 -15 -34 -22 -34 -16 0 25 50 62 115 85 102 37
123 41 144 28z m1335 -33 c9 -12 16 -31 16 -41 0 -25 28 -33 44 -12 18 25 29
4 16 -30 -16 -41 -12 -54 20 -87 25 -24 37 -29 59 -25 24 5 30 2 35 -16 12
-45 9 -47 -65 -47 -71 0 -71 0 -67 25 5 23 2 25 -33 25 -42 0 -69 21 -69 54 0
12 -6 31 -14 41 -11 15 -11 22 0 44 8 14 14 38 14 52 0 44 20 52 44 17z
m-1366 -88 c2 -19 9 -41 15 -48 7 -10 8 -16 0 -20 -6 -4 -14 -21 -17 -39 -13
-60 -58 -75 -128 -42 l-49 23 25 13 c36 19 43 51 16 70 -16 12 -19 18 -10 27
8 8 15 6 25 -8 18 -23 35 -12 35 23 0 37 8 43 50 39 32 -3 35 -6 38 -38z
m-225 -52 c4 -10 4 -18 2 -18 -6 0 -35 56 -35 67 0 10 25 -27 33 -49z m63 -31
c17 6 17 5 5 -10 -17 -21 -47 -22 -55 -1 -3 8 -2 12 4 9 6 -3 10 0 10 7 0 10
2 11 8 0 5 -8 16 -10 28 -5z m9 -74 c36 -18 55 -33 55 -45 0 -10 -6 -18 -13
-18 -17 0 -110 31 -118 39 -7 6 7 51 15 51 3 0 30 -12 61 -27z m1200 -45 c9
-12 115 -222 115 -230 0 -5 -60 -7 -135 -6 l-136 3 -53 115 -53 115 96 6 c88
5 160 4 166 -3z m-218 -137 c30 -62 52 -115 49 -118 -6 -6 -105 202 -111 235
-3 15 -2 20 1 12 4 -8 31 -66 61 -129z m-407 29 c-30 -38 -49 -54 -34 -27 19
32 57 77 62 73 2 -3 -10 -23 -28 -46z m-56 -75 c-4 -8 -11 -15 -16 -15 -6 0
-5 6 2 15 7 8 14 15 16 15 2 0 1 -7 -2 -15z m826 -10 c0 -8 -4 -15 -9 -15 -5
0 -11 7 -15 15 -3 9 0 15 9 15 8 0 15 -7 15 -15z m664 -61 c12 -31 5 -66 -39
-201 -25 -75 -45 -142 -45 -150 0 -10 -30 -13 -140 -13 -77 0 -140 2 -140 5 0
15 66 209 88 258 19 43 34 63 61 78 25 14 28 18 11 13 -14 -4 -35 -13 -47 -21
-24 -16 -71 -127 -106 -254 -21 -74 -24 -79 -49 -79 -20 0 -28 5 -28 18 1 38
100 316 121 338 22 23 28 24 165 24 120 0 143 -2 148 -16z m-886 -11 c-16 -2
-40 -2 -55 0 -16 2 -3 4 27 4 30 0 43 -2 28 -4z m197 -14 c11 -33 -6 -40 -81
-37 -62 3 -69 5 -72 25 -4 25 10 30 90 32 49 1 58 -2 63 -20z m-200 -19 c4 -6
-15 -10 -49 -10 -31 0 -56 5 -56 10 0 6 22 10 49 10 28 0 53 -4 56 -10z m273
-36 c46 -6 52 -9 52 -30 l0 -24 -485 0 c-422 0 -486 2 -491 15 -4 8 -4 22 0
30 5 13 63 15 438 15 238 0 457 -3 486 -6z m-108 -139 l0 -65 -30 0 -30 0 0
65 0 65 30 0 30 0 0 -65z m144 28 c-14 -78 -19 -83 -73 -83 l-49 0 -7 40 c-12
70 -3 80 71 80 l65 0 -7 -37z"/>
<path d="M13800 6486 c0 -10 -14 -16 -42 -18 -30 -2 -43 -8 -43 -18 0 -9 7
-14 19 -12 34 6 66 -7 66 -28 0 -11 5 -20 10 -20 6 0 10 8 10 19 0 15 10 19
50 23 28 3 53 8 56 11 14 14 -11 27 -51 27 -29 0 -45 5 -49 15 -7 19 -26 20
-26 1z"/>
<path d="M13945 6450 c3 -5 37 -10 75 -10 38 0 72 5 75 10 4 6 -23 10 -75 10
-52 0 -79 -4 -75 -10z"/>
<path d="M13680 6116 c0 -19 18 -24 58 -19 51 8 41 33 -13 33 -32 0 -45 -4
-45 -14z"/>
<path d="M13985 6150 c-3 -5 1 -10 10 -10 9 0 13 5 10 10 -3 6 -8 10 -10 10
-2 0 -7 -4 -10 -10z"/>
<path d="M14135 6110 c-13 -21 8 -30 66 -30 52 0 59 2 59 20 0 18 -7 20 -59
20 -33 0 -63 -4 -66 -10z"/>
<path d="M14280 6101 c0 -19 6 -21 56 -21 47 0 55 3 52 18 -2 13 -15 18 -56
20 -47 3 -52 1 -52 -17z"/>
<path d="M13903 6074 c-7 -3 -13 -17 -13 -30 0 -22 4 -24 49 -24 49 0 67 14
52 39 -8 13 -69 23 -88 15z"/>
<path d="M14024 6056 c-11 -30 2 -42 41 -38 30 4 36 8 33 26 -4 27 -65 37 -74
12z"/>
<path d="M14187 6062 c-48 -2 -58 -6 -53 -18 3 -9 6 -18 6 -20 0 -2 25 -4 55
-4 41 0 57 4 62 16 9 24 -7 29 -70 26z"/>
<path d="M14282 6048 c3 -8 26 -14 56 -16 42 -2 52 0 52 12 0 13 -12 16 -56
16 -40 0 -55 -4 -52 -12z"/>
<path d="M13325 5818 c-35 -53 -41 -68 -27 -68 4 0 21 22 37 50 16 27 31 47
34 45 8 -9 -52 -125 -65 -125 -6 0 -19 11 -28 25 -18 28 -46 34 -46 10 0 -8 5
-15 10 -15 6 0 20 -11 32 -25 12 -14 27 -25 34 -25 16 0 87 148 80 166 -9 25
-25 15 -61 -38z"/>
<path d="M12955 5761 c-9 -16 3 -31 26 -31 14 0 19 6 17 17 -4 20 -33 29 -43
14z"/>
<path d="M4643 6653 l-1113 -3 0 -900 0 -900 1120 0 1120 0 1 505 c0 278 1
681 1 895 0 444 0 411 -9 408 -5 -2 -509 -4 -1120 -5z m1117 -903 l0 -890
-1105 0 -1105 0 0 890 0 890 1105 0 1105 0 0 -890z"/>
<path d="M3908 6473 c12 -2 32 -2 45 0 12 2 2 4 -23 4 -25 0 -35 -2 -22 -4z"/>
<path d="M4058 6473 c12 -2 32 -2 45 0 12 2 2 4 -23 4 -25 0 -35 -2 -22 -4z"/>
<path d="M4198 6473 c12 -2 32 -2 45 0 12 2 2 4 -23 4 -25 0 -35 -2 -22 -4z"/>
<path d="M4348 6473 c12 -2 30 -2 40 0 9 3 -1 5 -23 4 -22 0 -30 -2 -17 -4z"/>
<path d="M4498 6473 c12 -2 30 -2 40 0 9 3 -1 5 -23 4 -22 0 -30 -2 -17 -4z"/>
<path d="M3722 6360 c0 -19 2 -27 5 -17 2 9 2 25 0 35 -3 9 -5 1 -5 -18z"/>
<path d="M4673 6300 c0 -25 2 -35 4 -22 2 12 2 32 0 45 -2 12 -4 2 -4 -23z"/>
<path d="M3723 6225 c0 -22 2 -30 4 -17 2 12 2 30 0 40 -3 9 -5 -1 -4 -23z"/>
<path d="M4673 6155 c0 -22 2 -30 4 -17 2 12 2 30 0 40 -3 9 -5 -1 -4 -23z"/>
<path d="M4673 6015 c0 -22 2 -30 4 -17 2 12 2 30 0 40 -3 9 -5 -1 -4 -23z"/>
<path d="M4365 5923 c4 -21 13 -63 20 -93 7 -30 16 -71 19 -91 9 -52 27 -64
57 -40 l24 19 32 -38 c36 -41 77 -58 99 -39 21 17 17 48 -12 99 l-25 44 25 19
c14 10 26 23 26 28 0 9 -203 110 -248 124 -22 6 -23 5 -17 -32z m186 -61 c60
-26 66 -37 29 -52 -33 -14 -38 -31 -14 -51 19 -16 44 -63 44 -84 0 -20 -44
-20 -65 1 -9 9 -23 27 -32 40 -17 27 -38 31 -47 9 -10 -28 -35 -16 -45 23 -20
74 -31 128 -31 154 l0 27 58 -24 c31 -12 78 -32 103 -43z"/>
<path d="M4668 5875 c-2 -19 0 -35 4 -35 4 0 8 16 8 35 0 19 -2 35 -4 35 -2 0
-6 -16 -8 -35z"/>
<path d="M3730 5831 c0 -6 4 -13 10 -16 6 -3 7 1 4 9 -7 18 -14 21 -14 7z"/>
<path d="M5226 5502 c-9 -15 20 -34 46 -30 35 5 29 32 -9 36 -17 2 -34 -1 -37
-6z"/>
<path d="M5133 5483 c-15 -6 -17 -29 -3 -38 14 -9 50 13 50 30 0 15 -23 18
-47 8z"/>
<path d="M5344 5468 c-8 -13 43 -61 57 -53 16 10 10 33 -13 49 -27 19 -35 20
-44 4z"/>
<path d="M5047 5392 c-19 -20 -22 -48 -8 -57 10 -6 51 46 51 64 0 17 -25 13
-43 -7z"/>
<path d="M5428 5384 c-3 -3 -1 -18 5 -35 12 -31 47 -41 47 -13 0 36 -33 67
-52 48z"/>
<path d="M5164 5356 c-4 -11 2 -27 20 -45 14 -15 26 -31 26 -36 0 -5 -14 -24
-32 -42 -27 -28 -29 -33 -14 -39 12 -4 28 3 49 24 l32 31 28 -25 c49 -42 78
-28 32 16 -31 30 -31 37 2 72 38 40 18 59 -25 24 -16 -14 -34 -26 -38 -26 -4
0 -23 14 -41 32 -28 27 -33 29 -39 14z"/>
<path d="M5003 5274 c-7 -20 9 -49 28 -49 22 0 18 59 -4 63 -9 2 -20 -4 -24
-14z"/>
<path d="M4610 5260 c0 -5 14 -10 30 -10 17 0 30 5 30 10 0 6 -13 10 -30 10
-16 0 -30 -4 -30 -10z"/>
<path d="M4740 5260 c0 -5 14 -10 30 -10 17 0 30 5 30 10 0 6 -13 10 -30 10
-16 0 -30 -4 -30 -10z"/>
<path d="M4870 5260 c0 -5 16 -10 35 -10 19 0 35 5 35 10 0 6 -16 10 -35 10
-19 0 -35 -4 -35 -10z"/>
<path d="M5447 5253 c-2 -5 -7 -20 -11 -35 -5 -23 -3 -28 13 -28 20 0 31 18
31 51 0 18 -24 27 -33 12z"/>
<path d="M5040 5165 c0 -8 9 -24 21 -36 16 -16 23 -18 34 -9 12 10 12 15 -2
36 -17 27 -53 33 -53 9z"/>
<path d="M5373 5138 c-21 -24 -21 -48 1 -48 20 0 49 38 43 55 -9 21 -20 19
-44 -7z"/>
<path d="M5130 5085 c0 -20 43 -40 67 -31 17 7 16 9 -6 27 -28 23 -61 25 -61
4z"/>
<path d="M5281 5081 c-36 -10 -39 -31 -4 -31 35 0 58 14 49 29 -8 12 -10 12
-45 2z"/>
<path d="M6682 6650 c-103 -4 -135 -8 -142 -20 -15 -24 -13 -1823 2 -1838 9
-9 281 -12 1164 -12 1001 0 1156 -2 1187 -15 55 -23 108 -19 153 11 48 33 52
39 105 143 65 126 57 150 -82 248 l-68 48 -1 707 0 708 -22 13 c-19 12 -200
14 -1093 13 -588 0 -1130 -3 -1203 -6z m2292 -25 c11 -11 14 -36 13 -102 l-2
-88 -1217 -3 -1218 -2 0 93 c0 59 4 97 12 105 9 9 290 12 1204 12 1044 0 1194
-2 1208 -15z m10 -802 c-3 -324 -7 -589 -9 -591 -2 -2 -31 17 -65 42 -35 26
-72 48 -84 51 -45 9 -575 28 -608 21 -45 -8 -113 -57 -133 -95 -8 -17 -15 -53
-15 -82 0 -67 31 -123 86 -155 44 -26 114 -34 447 -50 l139 -6 24 -37 c52 -77
74 -112 74 -121 0 -11 -2247 -14 -2274 -4 -14 6 -16 86 -16 810 l0 804 1220 0
1219 0 -5 -587z m-323 -512 c149 -7 169 -10 197 -30 18 -12 32 -30 32 -39 0
-14 2 -14 9 -3 7 11 22 6 78 -29 106 -67 183 -130 194 -158 8 -22 3 -42 -32
-119 -47 -104 -85 -146 -149 -163 -69 -18 -131 23 -181 122 -22 43 -19 59 6
38 8 -7 23 -9 32 -5 14 5 6 13 -37 33 -52 24 -70 27 -314 39 -143 7 -273 17
-290 23 -37 13 -69 38 -85 67 -15 29 -14 41 2 20 11 -16 13 -16 25 4 8 12 9
18 3 14 -6 -3 -11 -1 -11 5 0 18 -24 37 -39 32 -11 -4 -13 3 -8 32 8 50 39 90
89 115 47 23 19 23 479 2z"/>
<path d="M6800 6562 c-18 -14 -21 -25 -16 -45 8 -35 49 -46 76 -22 25 23 25
40 0 65 -25 25 -32 25 -60 2z m50 -17 c17 -20 5 -45 -20 -45 -23 0 -35 22 -26
45 7 19 30 19 46 0z"/>
<path d="M6962 6564 c-30 -21 -29 -61 2 -75 50 -23 90 36 50 75 -19 20 -24 20
-52 0z m43 -34 c0 -29 -32 -41 -41 -16 -9 24 4 48 23 44 12 -2 18 -12 18 -28z"/>
<path d="M6628 6545 c-24 -53 56 -88 88 -40 12 18 11 24 -2 43 -22 32 -71 30
-86 -3z m76 -8 c9 -15 7 -21 -9 -33 -22 -16 -34 -14 -49 8 -7 12 -6 21 4 33
16 19 39 16 54 -8z"/>
<path d="M8683 6533 c9 -2 23 -2 30 0 6 3 -1 5 -18 5 -16 0 -22 -2 -12 -5z"/>
<path d="M8740 6536 c0 -9 30 -14 35 -6 4 6 -3 10 -14 10 -12 0 -21 -2 -21 -4z"/>
<path d="M6737 6262 c-15 -17 -17 -58 -17 -380 0 -349 1 -363 20 -382 20 -20
33 -20 593 -20 571 0 574 0 593 21 18 20 19 43 22 380 3 349 2 359 -18 379
-20 20 -30 20 -598 20 -548 0 -580 -1 -595 -18z m152 -8 c27 -6 29 -8 15 -19
-11 -7 -30 -9 -55 -5 -33 6 -41 4 -64 -20 -14 -14 -22 -30 -18 -34 4 -4 6 -33
5 -64 -2 -31 3 -75 11 -97 13 -38 16 -40 67 -48 30 -4 61 -13 69 -21 13 -11
112 -15 471 -21 250 -4 465 -8 478 -8 21 1 22 -2 24 -101 1 -55 3 -78 5 -51 8
134 18 111 23 -55 3 -96 2 -183 -2 -192 -8 -16 -51 -17 -579 -18 -415 0 -575
3 -585 11 -11 9 -14 69 -14 315 0 167 4 304 8 304 11 0 8 41 -6 66 -9 16 -8
26 4 42 12 17 25 22 63 22 27 0 63 -3 80 -6z m1029 -37 l3 -39 -32 19 c-17 10
-37 26 -43 36 -15 23 -109 25 -100 2 4 -8 12 -15 19 -15 8 0 11 -8 8 -19 -4
-16 -36 -30 -85 -35 -3 -1 -10 -4 -14 -8 -13 -13 -26 -9 -21 6 9 23 -24 26
-276 26 l-235 1 -5 27 c-3 15 -3 30 -1 33 2 4 178 6 391 5 l388 -1 3 -38z
m-914 24 c3 -4 -6 -6 -19 -3 -14 2 -25 6 -25 8 0 8 39 4 44 -5z m-3 -41 c17
-9 19 -22 19 -103 0 -51 -4 -98 -8 -105 -6 -9 -35 -12 -108 -10 l-99 3 -3 99
c-2 64 1 103 9 112 14 17 160 20 190 4z m617 -26 c19 -6 22 -13 22 -60 0 -29
-4 -64 -10 -78 l-10 -26 -222 0 c-123 0 -233 3 -245 6 -25 7 -38 70 -27 129
l6 35 232 0 c127 0 241 -3 254 -6z m152 -25 c24 1 24 1 5 -18 -29 -28 -64 -36
-71 -17 -10 26 4 49 24 41 9 -4 28 -7 42 -6z m70 -2 c0 -15 -38 -52 -87 -86
-53 -36 -40 -2 19 51 56 50 68 56 68 35z m11 -76 c-13 -24 -42 -35 -52 -20 -4
6 -12 8 -18 5 -6 -4 -11 -5 -11 -2 0 9 54 35 73 36 14 0 16 -4 8 -19z m-181
-17 c0 -8 -4 -12 -10 -9 -5 3 -10 13 -10 21 0 8 5 12 10 9 6 -3 10 -13 10 -21z"/>
<path d="M7881 5561 c-8 -5 -20 -7 -28 -4 -14 6 -17 -6 -5 -22 4 -7 16 -2 31
12 25 24 26 29 2 14z"/>
<path d="M6830 6090 l0 -80 75 0 75 0 0 54 c0 30 -4 58 -10 61 -5 3 -10 -3
-10 -14 0 -25 -12 -32 -30 -20 -9 5 -10 9 -4 9 7 0 12 6 11 13 -1 32 4 46 21
50 9 3 -16 5 -55 6 l-73 1 0 -80z"/>
<path d="M7150 6098 l0 -58 230 0 230 0 0 58 0 57 -230 0 -230 0 0 -57z"/>
<path d="M8780 6266 c0 -9 5 -16 10 -16 6 0 10 4 10 9 0 6 -4 13 -10 16 -5 3
-10 -1 -10 -9z"/>
<path d="M8080 6260 c0 -5 5 -10 11 -10 5 0 7 5 4 10 -3 6 -8 10 -11 10 -2 0
-4 -4 -4 -10z"/>
<path d="M8120 5776 c-12 -14 -22 -37 -22 -51 0 -35 39 -75 73 -75 32 0 79 50
79 84 0 12 -10 32 -23 44 -31 30 -77 29 -107 -2z m98 -9 c17 -13 15 -57 -5
-79 -41 -46 -120 2 -94 58 18 39 62 49 99 21z"/>
<path d="M8310 5650 c0 -6 38 -10 95 -10 57 0 95 4 95 10 0 6 -38 10 -95 10
-57 0 -95 -4 -95 -10z"/>
<path d="M8520 5650 c0 -6 47 -10 120 -10 73 0 120 4 120 10 0 6 -47 10 -120
10 -73 0 -120 -4 -120 -10z"/>
<path d="M8126 5599 c-34 -27 -35 -71 -1 -104 13 -14 36 -25 50 -25 60 0 100
94 57 133 -25 23 -74 21 -106 -4z m74 -10 c0 -6 -7 -9 -15 -5 -15 5 -20 -5 -8
-17 3 -4 14 0 24 9 17 15 18 14 25 -10 15 -60 -56 -102 -90 -54 -20 29 -20 47
1 70 18 20 63 25 63 7z"/>
<path d="M8166 5535 c-3 -8 -1 -15 4 -15 6 0 10 7 10 15 0 8 -2 15 -4 15 -2 0
-6 -7 -10 -15z"/>
<path d="M8311 5536 c7 -7 199 -9 206 -2 3 3 -42 6 -102 6 -60 0 -106 -2 -104
-4z"/>
<path d="M8574 5533 c11 -11 175 -12 182 -2 3 5 -38 9 -92 9 -54 0 -94 -3 -90
-7z"/>
<path d="M7763 5365 c-70 -30 -95 -127 -48 -184 74 -87 202 -47 212 66 6 56
-19 97 -73 119 -41 17 -50 17 -91 -1z m85 -19 c91 -47 86 -147 -9 -186 -82
-35 -168 86 -111 156 35 44 75 54 120 30z"/>
<path d="M6748 5363 c-16 -4 -18 -18 -18 -109 0 -103 0 -104 26 -110 41 -10
318 6 326 19 12 18 9 166 -2 188 -10 18 -22 19 -163 18 -84 -1 -160 -3 -169
-6z m320 -105 l3 -86 -38 -5 c-21 -3 -93 -6 -160 -6 l-123 -1 0 95 0 96 158
-3 157 -3 3 -87z"/>
<path d="M7222 5358 c-8 -8 -12 -46 -12 -110 l0 -98 173 2 172 3 0 105 0 105
-160 3 c-116 2 -164 -1 -173 -10z m316 -30 c-2 -13 -11 -22 -23 -23 -11 -1
-49 -18 -83 -38 -35 -20 -67 -37 -71 -37 -5 0 -34 -11 -65 -25 -31 -14 -59
-25 -61 -25 -3 0 -5 38 -5 84 l0 85 156 0 c152 0 155 -1 152 -21z"/>
<path d="M6786 5029 c-54 -42 -19 -129 51 -129 37 0 73 38 73 77 0 31 -42 73
-73 73 -13 0 -36 -9 -51 -21z"/>
<path d="M7075 5033 c-46 -11 -60 -68 -25 -103 19 -19 33 -20 424 -20 393 0
404 1 430 21 17 14 26 30 26 49 0 57 -5 58 -440 58 -217 0 -404 -3 -415 -5z
m393 -58 l1 -45 -207 2 -207 3 -3 28 c-7 58 -10 57 211 57 l204 0 1 -45z m440
12 c6 -54 -3 -57 -204 -57 l-184 0 -1 38 -2 37 -6 -34 c-9 -54 -31 -52 -31 3
l0 45 213 -2 212 -2 3 -28z"/>
<path d="M8190 5261 c13 -9 12 -12 -6 -17 -25 -7 -30 -50 -8 -58 16 -6 19 -36
4 -36 -5 0 -7 7 -4 15 4 8 2 15 -4 15 -15 0 -7 -49 12 -68 15 -15 16 -15 16 0
0 19 23 30 48 22 9 -3 5 4 -10 16 -47 36 -31 80 28 80 28 0 31 -3 26 -25 -2
-15 0 -25 7 -25 6 0 11 11 11 25 0 16 6 25 15 25 11 0 15 -12 16 -42 l1 -43 8
40 c8 42 -1 57 -30 53 -8 -1 -24 3 -35 9 -28 15 -115 28 -95 14z"/>
<path d="M8371 5178 c1 -55 5 -50 11 15 2 20 0 37 -4 37 -4 0 -7 -24 -7 -52z"/>
<path d="M8405 5222 c6 -7 97 -3 104 4 3 3 -21 4 -52 3 -32 -1 -55 -4 -52 -7z"/>
<path d="M8558 5223 c7 -3 16 -2 19 1 4 3 -2 6 -13 5 -11 0 -14 -3 -6 -6z"/>
<path d="M8683 5155 c0 -33 2 -45 4 -27 2 18 2 45 0 60 -2 15 -4 0 -4 -33z"/>
<path d="M8132 5180 c0 -14 2 -19 5 -12 2 6 2 18 0 25 -3 6 -5 1 -5 -13z"/>
<path d="M8245 5190 c3 -5 13 -10 21 -10 8 0 12 5 9 10 -3 6 -13 10 -21 10 -8
0 -12 -4 -9 -10z"/>
<path d="M8520 5181 c0 -6 5 -13 10 -16 6 -3 10 1 10 9 0 9 -4 16 -10 16 -5 0
-10 -4 -10 -9z"/>
<path d="M8906 5163 c4 -22 3 -33 -5 -33 -6 0 -11 6 -12 13 -1 20 -18 -26 -18
-52 -1 -14 -9 -33 -18 -44 -17 -19 -17 -20 0 -14 28 10 20 -7 -13 -26 -26 -16
-40 -37 -24 -37 14 0 93 61 107 84 23 34 21 85 -3 116 l-20 25 6 -32z"/>
<path d="M8763 5135 c0 -27 2 -38 4 -22 2 15 2 37 0 50 -2 12 -4 0 -4 -28z"/>
<path d="M8801 5125 c0 -38 2 -45 9 -28 5 12 5 34 0 50 -7 24 -8 21 -9 -22z"/>
<path d="M8302 5140 c0 -14 2 -19 5 -12 2 6 2 18 0 25 -3 6 -5 1 -5 -13z"/>
<path d="M8470 5129 c0 -5 5 -7 10 -4 6 3 10 8 10 11 0 2 -4 4 -10 4 -5 0 -10
-5 -10 -11z"/>
<path d="M8358 5083 c7 -3 16 -2 19 1 4 3 -2 6 -13 5 -11 0 -14 -3 -6 -6z"/>
<path d="M8970 5021 c0 -22 -5 -41 -12 -43 -6 -2 -8 -10 -4 -16 11 -19 23 -6
30 34 4 19 10 42 13 50 3 8 -1 14 -11 14 -12 0 -16 -10 -16 -39z"/>
<path d="M8910 4988 c0 -18 18 -34 28 -24 3 4 -2 14 -11 23 -16 16 -17 16 -17
1z"/>
<path d="M12985 6640 c-50 -11 -91 -37 -129 -81 -123 -145 -12 -364 185 -361
32 0 68 6 80 13 18 9 30 7 70 -12 27 -12 52 -19 55 -16 4 4 -1 26 -10 51 -16
43 -16 45 6 82 36 61 33 155 -7 220 -47 75 -165 125 -250 104z m154 -40 c103
-53 139 -169 85 -277 -24 -49 -24 -53 -9 -82 18 -36 17 -36 -32 -16 -32 13
-40 13 -82 -2 -127 -45 -280 60 -281 193 0 49 44 140 81 167 68 49 162 56 238
17z"/>
<path d="M13015 6420 l-60 -7 78 -1 c50 -1 76 2 72 8 -3 6 -12 9 -18 8 -7 -1
-39 -4 -72 -8z"/>
<path d="M12963 6363 c37 -2 96 -2 130 0 34 2 4 3 -68 3 -71 0 -99 -1 -62 -3z"/>
<path d="M10130 6623 c-29 -11 -59 -46 -71 -82 -16 -49 -24 -58 -61 -65 -17
-3 -39 -13 -48 -21 -9 -8 -70 -29 -136 -46 -131 -34 -161 -48 -169 -82 -3 -12
30 -173 75 -357 44 -184 92 -384 106 -445 15 -60 41 -171 59 -245 18 -74 43
-182 55 -240 23 -113 47 -150 94 -150 13 0 141 29 285 65 144 36 268 65 276
65 12 0 15 -19 15 -100 0 -96 1 -102 26 -125 l27 -25 500 0 499 0 74 -73 c45
-45 74 -82 74 -95 0 -11 5 -24 10 -27 6 -3 10 1 10 10 0 36 -31 84 -93 142
-37 34 -68 72 -71 85 -2 13 -12 59 -22 103 -23 110 -24 149 -1 153 37 7 59
-27 87 -135 17 -67 32 -53 28 27 l-3 71 40 -3 c33 -2 41 -7 43 -26 5 -35 46
-26 50 11 2 15 9 27 17 27 7 0 20 3 28 6 11 4 17 -4 22 -25 10 -45 28 -39 21
7 -6 34 -4 38 25 55 17 10 33 16 34 15 1 -2 12 -32 23 -68 15 -47 22 -103 26
-203 5 -117 15 -177 30 -177 2 0 0 17 -5 38 -5 20 -9 87 -9 147 0 84 -6 130
-24 197 l-24 86 26 38 c61 90 78 203 46 297 -20 58 -88 136 -148 168 l-46 24
0 244 0 245 -48 45 c-61 59 -307 272 -383 332 l-59 47 -363 -3 -363 -3 -28 34
c-32 40 -47 42 -158 14 -44 -12 -114 -27 -155 -34 -71 -12 -75 -12 -91 9 -39
48 -99 67 -152 48z m130 -53 c35 -38 38 -39 74 -29 21 6 43 8 50 6 12 -5 44
-124 35 -130 -10 -8 -409 -100 -413 -96 -10 9 -34 129 -28 133 4 2 26 9 48 15
38 10 42 15 48 50 8 54 53 91 108 91 35 0 47 -6 78 -40z m347 14 c-3 -3 -12
-4 -19 -1 -8 3 -5 6 6 6 11 1 17 -2 13 -5z m62 -8 c9 -11 4 -18 -26 -35 l-38
-22 28 26 c16 14 25 30 22 35 -9 15 1 12 14 -4z m-227 -34 c-7 -5 -10 -17 -6
-28 5 -16 4 -16 -5 -4 -16 22 -13 40 7 40 12 0 14 -2 4 -8z m998 -247 l5 -240
230 0 230 -1 3 -199 2 -200 -90 0 -89 -1 -3 121 -3 120 -420 3 c-231 1 -435 0
-452 -3 l-33 -6 0 -284 0 -285 349 0 348 0 7 -37 c3 -21 9 -48 12 -60 l6 -23
-350 0 c-349 0 -351 0 -366 -22 -33 -47 -23 -49 382 -48 357 1 377 0 401 -18
26 -19 26 -20 7 -41 -19 -20 -19 -22 2 -113 12 -51 24 -110 27 -130 l6 -38
-492 0 c-444 0 -494 2 -511 17 -17 15 -18 55 -18 852 0 460 4 841 8 847 21 31
49 34 422 31 l375 -2 5 -240z m-836 196 c-5 -5 -22 -12 -39 -15 -30 -6 -30 -5
3 6 17 6 32 15 32 21 0 6 3 7 7 4 4 -4 2 -11 -3 -16z m1063 -147 c245 -210
243 -209 243 -238 0 -23 -3 -24 -82 -31 -46 -3 -146 -5 -223 -3 l-140 3 -3
218 c-1 138 1 218 7 215 6 -1 95 -76 198 -164z m-1057 -324 c0 -398 -1 -430
-17 -439 -17 -10 -17 -10 -1 -11 15 0 17 -19 17 -200 1 -199 0 -201 -22 -209
-55 -21 -526 -135 -533 -129 -4 4 -44 164 -89 355 -46 192 -109 456 -140 588
-32 132 -58 247 -59 255 -1 11 24 21 89 38 50 12 109 24 132 27 79 9 446 106
457 121 11 15 77 31 134 33 l32 1 0 -430z m-909 324 c-27 -19 -26 -37 12 -164
34 -116 175 -703 258 -1075 22 -103 37 -145 40 -115 1 8 1 29 0 45 -1 26 0 27
8 10 14 -33 38 -47 63 -39 19 6 21 4 12 -7 -5 -8 -9 -20 -8 -26 1 -7 2 -17 3
-23 0 -5 11 -10 24 -11 16 -1 14 -3 -11 -10 -19 -6 -50 -9 -70 -7 -44 4 -31
-31 -117 338 -79 339 -160 679 -209 883 -20 81 -36 156 -36 167 0 21 25 50 43
50 6 0 1 -7 -12 -16z m2007 -591 c2 -108 1 -123 -14 -123 -9 0 -44 -28 -78
-62 -64 -65 -96 -132 -96 -199 l0 -29 -340 0 -340 0 0 263 c0 145 3 266 6 270
4 3 198 5 433 4 l426 -2 3 -122z m-1814 -183 c8 -30 13 -56 11 -58 -8 -8 -35
70 -34 100 1 38 4 33 23 -42z m2029 50 c119 -37 188 -128 195 -258 5 -93 -15
-149 -77 -216 -117 -126 -302 -131 -423 -12 -47 46 -66 82 -79 149 -23 126 41
265 146 320 81 41 144 46 238 17z m-1920 -515 l6 -40 -15 28 c-8 15 -12 32 -9
37 3 5 1 18 -4 28 -6 11 -7 22 -3 26 7 8 16 -18 25 -79z m1565 58 c3 -10 -74
-13 -362 -13 -221 0 -366 4 -366 9 0 16 50 18 394 17 254 -1 330 -4 334 -13z
m-1341 -129 c-3 -3 -12 -4 -19 -1 -8 3 -5 6 6 6 11 1 17 -2 13 -5z m1512 -26
c0 -28 -2 -30 -9 -13 -12 28 -12 45 0 45 6 0 10 -15 9 -32z m-1552 16 c-3 -3
-12 -4 -19 -1 -8 3 -5 6 6 6 11 1 17 -2 13 -5z m1670 -26 c-3 -7 -5 -2 -5 12
0 14 2 19 5 13 2 -7 2 -19 0 -25z"/>
<path d="M10147 6523 c-11 -11 -8 -58 5 -71 39 -39 100 17 63 58 -18 19 -55
27 -68 13z m57 -29 c8 -21 -1 -34 -24 -34 -19 0 -34 25 -24 41 9 15 41 10 48
-7z"/>
<path d="M10822 6384 c-19 -13 -22 -24 -22 -83 0 -103 -5 -101 247 -101 249 0
243 -2 243 102 0 100 4 98 -241 98 -169 0 -208 -3 -227 -16z m436 -16 c7 -7
12 -38 12 -70 0 -54 -2 -59 -26 -68 -14 -6 -111 -10 -215 -10 l-189 0 -10 26
c-17 43 -12 112 8 123 26 15 405 14 420 -1z"/>
<path d="M10948 6333 c34 -2 88 -2 120 0 31 2 3 3 -63 3 -66 0 -92 -1 -57 -3z"/>
<path d="M11224 6332 c-5 -4 -11 -18 -13 -32 -1 -14 -8 -28 -15 -32 -8 -6 -7
-8 2 -8 8 0 10 -5 6 -12 -5 -10 -4 -10 6 -1 9 8 19 9 32 2 16 -9 18 -5 18 35
0 43 -15 63 -36 48z"/>
<path d="M11191 6294 c0 -11 3 -14 6 -6 3 7 2 16 -1 19 -3 4 -6 -2 -5 -13z"/>
<path d="M10800 6050 c0 -5 25 -10 55 -10 30 0 55 5 55 10 0 6 -25 10 -55 10
-30 0 -55 -4 -55 -10z"/>
<path d="M10950 6050 c0 -6 26 -10 59 -10 33 0 63 5 66 10 4 6 -18 10 -59 10
-37 0 -66 -4 -66 -10z"/>
<path d="M11098 6048 c9 -9 15 -9 24 0 9 9 7 12 -12 12 -19 0 -21 -3 -12 -12z"/>
<path d="M11160 6050 c0 -5 6 -10 14 -10 8 0 18 5 21 10 3 6 -3 10 -14 10 -12
0 -21 -4 -21 -10z"/>
<path d="M11225 6050 c3 -5 24 -10 46 -10 21 0 39 5 39 10 0 6 -21 10 -46 10
-27 0 -43 -4 -39 -10z"/>
<path d="M10825 5050 c-4 -6 43 -10 134 -10 87 0 141 4 141 10 0 6 -51 10
-134 10 -79 0 -137 -4 -141 -10z"/>
<path d="M10820 4950 c0 -6 70 -10 190 -10 120 0 190 4 190 10 0 6 -70 10
-190 10 -120 0 -190 -4 -190 -10z"/>
<path d="M10233 6098 c-33 -37 -67 -117 -87 -211 l-7 -28 -35 30 c-58 51 -114
37 -114 -29 0 -11 7 -32 17 -46 20 -32 109 -84 143 -84 59 0 140 90 140 155 0
14 -7 39 -15 55 -13 25 -13 33 0 70 20 55 19 96 -1 104 -21 8 -18 9 -41 -16z
m37 -23 c0 -8 -9 -38 -20 -66 -13 -32 -17 -55 -11 -58 5 -4 15 -20 21 -36 22
-58 -46 -165 -105 -165 -29 0 -116 59 -134 92 -17 30 -9 58 17 58 11 0 40 -18
65 -40 25 -22 47 -40 50 -40 2 0 7 22 11 50 8 61 29 122 62 177 25 43 44 55
44 28z"/>
<path d="M10342 5643 c-16 -6 -44 -62 -71 -138 -38 -107 -22 -115 19 -10 30
79 58 125 76 125 8 0 14 -3 14 -7 0 -15 -114 -253 -121 -253 -4 0 -23 18 -44
41 -28 32 -40 38 -48 29 -9 -9 0 -22 38 -56 27 -24 54 -43 60 -41 8 2 71 119
88 162 2 5 11 2 21 -8 25 -24 29 -21 13 10 -13 23 -12 31 0 61 27 64 4 106
-45 85z"/>
<path d="M10112 5420 c0 -19 2 -27 5 -17 2 9 2 25 0 35 -3 9 -5 1 -5 -18z"/>
<path d="M10260 5280 c-28 -4 -35 -8 -18 -8 14 -1 33 -5 41 -8 8 -3 17 2 20
10 4 9 5 15 4 14 -1 0 -22 -4 -47 -8z"/>
<path d="M11333 5693 c-16 -6 -17 -45 -1 -61 7 -7 42 -12 88 -12 46 0 81 5 88
12 18 18 14 46 -7 58 -20 10 -145 13 -168 3z"/>
<path d="M11050 5661 c0 -37 11 -41 125 -41 91 0 93 0 99 25 4 14 4 30 1 35
-4 6 -55 10 -116 10 l-109 0 0 -29z"/>
<path d="M11054 5576 c-3 -8 -4 -23 -2 -33 3 -16 15 -18 113 -18 98 0 110 2
113 18 8 38 -15 47 -120 47 -77 0 -100 -3 -104 -14z"/>
<path d="M11331 5576 c-7 -8 -10 -24 -6 -36 6 -19 13 -21 93 -18 l87 3 0 30 0
30 -81 3 c-62 2 -84 -1 -93 -12z"/>
<path d="M11054 5466 c-3 -8 -4 -23 -2 -33 3 -16 16 -18 107 -21 58 -1 109 2
114 7 5 5 7 21 3 35 -6 26 -7 26 -112 26 -82 0 -106 -3 -110 -14z"/>
<path d="M11327 5468 c-2 -7 -2 -21 1 -30 4 -16 17 -18 93 -18 l89 0 0 30 0
30 -89 0 c-63 0 -91 -4 -94 -12z"/>
<path d="M11943 5472 c-10 -10 -47 -50 -82 -90 l-64 -73 -31 30 c-17 16 -40
33 -51 39 -42 20 -89 -25 -67 -64 15 -27 135 -124 153 -124 23 0 229 225 229
251 0 14 -38 49 -55 49 -8 0 -23 -8 -32 -18z m57 -17 c9 -11 9 -18 -2 -34 -29
-42 -180 -210 -193 -214 -7 -3 -43 23 -81 57 -50 46 -66 67 -61 79 13 34 37
31 81 -12 23 -22 46 -41 52 -41 6 0 45 41 88 90 43 50 84 90 91 90 7 0 18 -7
25 -15z"/>
<path d="M14320 6590 c-10 -7 10 -10 66 -10 72 0 85 -3 128 -30 49 -31 60 -21
15 13 -45 33 -174 50 -209 27z"/>
<path d="M862 6571 c-8 -5 -12 -23 -10 -47 2 -31 7 -40 25 -42 19 -3 22 -11
28 -75 3 -40 5 -110 3 -157 l-3 -85 -77 -3 c-129 -5 -118 57 -118 -674 l0
-620 29 -29 29 -29 271 0 270 0 20 26 c12 15 21 37 21 50 l0 24 498 1 c924 3
992 4 994 14 2 6 -14 11 -34 13 l-38 3 0 232 c0 189 3 239 16 274 15 39 15 46
0 92 -14 43 -16 111 -16 496 l0 445 25 10 c19 7 25 17 25 38 0 15 -5 33 -12
40 -9 9 -239 12 -972 12 -529 0 -967 -4 -974 -9z m1935 -27 c3 -8 0 -21 -6
-27 -9 -9 -245 -12 -964 -12 l-952 0 -3 28 -3 27 961 0 c863 0 961 -2 967 -16z
m-490 -64 l443 0 0 -445 0 -445 -540 0 -540 0 0 46 c0 97 -48 134 -173 134
-47 0 -89 5 -92 10 -4 6 47 10 144 10 125 0 151 3 151 14 0 8 -4 18 -10 21 -5
3 -10 1 -10 -4 0 -7 -46 -11 -132 -11 -102 0 -140 4 -170 17 -21 9 -38 23 -38
30 0 10 35 13 160 13 l160 0 2 183 c3 181 3 182 26 185 20 3 23 8 20 45 l-3
42 -315 0 -315 0 -3 -47 c-3 -43 -1 -48 18 -48 17 0 21 -5 18 -27 -4 -38 -27
-39 -73 -3 -28 22 -48 30 -78 30 l-40 0 6 68 c4 37 7 93 7 124 l0 58 378 3
c207 2 417 2 466 0 49 -2 289 -3 533 -3z m-622 -180 c3 -6 3 -19 0 -30 -6 -19
-16 -20 -301 -20 l-294 0 0 30 0 30 294 0 c188 0 297 -4 301 -10z m-317 -240
c-3 -199 -20 -232 -28 -54 -5 114 -5 116 -35 140 -26 20 -41 24 -106 24 l-76
0 5 30 4 30 119 0 119 0 -2 -170z m270 -2 l-3 -173 -105 -3 c-162 -3 -150 -14
-150 132 0 68 3 144 6 170 l7 46 124 0 123 0 -2 -172z m-891 40 c-3 -8 -6 -5
-6 6 -1 11 2 17 5 13 3 -3 4 -12 1 -19z m371 10 c-6 -17 -176 -34 -190 -20
-23 23 6 32 98 32 72 0 95 -3 92 -12z m-33 -38 c3 -5 2 -10 -4 -10 -5 0 -13 5
-16 10 -3 6 -2 10 4 10 5 0 13 -4 16 -10z m235 -130 l0 -100 -54 0 c-69 0 -83
-6 -102 -41 -14 -28 -17 -29 -92 -29 -59 0 -85 -5 -109 -20 -60 -36 -63 -52
-63 -330 0 -351 -8 -341 254 -343 l171 -2 0 -50 0 -50 -297 -3 -298 -2 0 528
c0 291 3 532 7 535 3 4 136 7 295 7 l288 0 0 -100z m57 -135 c3 -9 4 -17 2
-19 -2 -2 -48 -6 -101 -9 -76 -5 -98 -4 -98 6 0 28 25 37 107 37 66 0 85 -3
90 -15z m212 -58 c13 -6 34 -25 45 -40 20 -27 21 -43 24 -282 l3 -254 -37 -40
-36 -41 -299 0 -299 0 -32 29 c-29 26 -33 36 -39 107 -4 44 -8 158 -8 254 -1
286 -10 280 379 280 198 0 282 -4 299 -13z m611 -227 l0 -50 -262 2 -263 3 -3
48 -3 47 265 0 266 0 0 -50z m98 -100 c2 12 4 12 11 2 11 -19 76 -12 77 8 1 8
3 29 4 45 1 25 3 27 9 11 7 -18 8 -18 14 5 13 46 8 67 -15 72 -13 2 5 5 40 6
62 1 69 -3 63 -41 0 -4 6 -5 14 -2 9 4 21 1 29 -5 7 -6 15 -9 17 -7 2 3 5 -22
6 -55 l2 -59 -144 0 -145 0 2 88 2 87 6 -85 c3 -47 7 -78 8 -70z m289 38 c-3
-8 -6 -5 -6 6 -1 11 2 17 5 13 3 -3 4 -12 1 -19z m150 -10 c-3 -8 -6 -5 -6 6
-1 11 2 17 5 13 3 -3 4 -12 1 -19z m-837 -148 l0 -160 -116 0 c-102 0 -115 2
-110 16 3 9 6 78 6 154 l0 139 33 4 c17 2 67 5 110 5 l77 2 0 -160z m178 153
l82 -6 0 -153 0 -154 -120 0 -120 0 0 153 c0 85 3 157 7 160 8 9 45 9 151 0z
m132 -13 c0 -28 30 -26 31 3 1 21 1 21 9 -3 4 -14 8 -132 9 -262 l1 -238 -455
0 -455 0 0 70 0 70 420 0 c273 0 420 3 420 10 0 6 -101 10 -282 10 -187 0
-278 4 -268 10 9 6 125 10 278 10 l262 0 0 133 c0 72 3 149 6 170 7 39 24 51
24 17z m508 -27 c-16 -2 -40 -2 -55 0 -16 2 -3 4 27 4 30 0 43 -2 28 -4z m32
-253 l0 -220 -85 0 -85 0 0 220 0 220 85 0 85 0 0 -220z m-192 95 c2 -60 0
-156 -3 -212 l-7 -103 -134 0 -134 0 0 215 0 216 138 -3 137 -3 3 -110z
m-1568 -309 c0 -3 -4 -8 -10 -11 -5 -3 -10 -1 -10 4 0 6 5 11 10 11 6 0 10 -2
10 -4z"/>
<path d="M1917 6323 c-4 -3 -7 -24 -7 -46 0 -30 4 -40 19 -44 17 -4 20 -19 26
-149 4 -79 4 -159 1 -179 l-7 -35 291 0 290 0 0 185 c0 180 1 185 21 185 18 0
20 5 17 43 l-3 42 -321 3 c-176 1 -323 -1 -327 -5z m631 -45 l3 -28 -310 0
-311 0 0 30 0 30 308 -2 307 -3 3 -27z m-318 -173 l0 -125 -122 -1 c-102 -1
-117 -3 -88 -12 19 -5 80 -12 135 -14 l100 -4 -3 140 -4 141 131 0 131 0 0
-125 0 -125 -57 -1 c-32 -1 -44 -4 -28 -6 51 -6 75 -24 75 -54 l0 -28 -260 -3
-260 -3 0 173 0 172 125 0 125 0 0 -125z"/>
<path d="M2546 5825 c-5 -13 -49 -15 -311 -15 -197 0 -305 4 -305 10 0 6 -4
10 -10 10 -5 0 -10 -9 -10 -20 0 -20 7 -20 325 -20 l325 0 0 25 c0 28 -5 32
-14 10z"/>
<path d="M1483 5688 c-30 -14 -36 -36 -18 -64 29 -45 88 -39 101 12 11 42 -39
73 -83 52z m55 -17 c8 -4 12 -19 10 -32 -2 -19 -9 -24 -32 -24 -36 0 -56 26
-37 49 15 18 39 20 59 7z"/>
<path d="M1202 5569 c-65 -32 -97 -87 -96 -163 0 -38 7 -73 17 -94 36 -67 144
-108 220 -83 54 18 114 89 122 144 23 154 -125 264 -263 196z m180 -24 c47
-35 71 -90 66 -151 -8 -92 -63 -145 -155 -152 -49 -3 -64 0 -93 20 -53 36 -80
83 -80 140 0 75 33 127 100 160 29 15 134 3 162 -17z"/>
<path d="M1238 5484 c-71 -38 -61 -138 16 -164 106 -35 173 115 74 166 -34 18
-56 17 -90 -2z m102 -24 c44 -44 9 -130 -54 -130 -66 0 -100 78 -54 127 27 29
80 31 108 3z"/>
<path d="M14627 6503 c-75 -30 -90 -41 -106 -71 -17 -33 -17 -37 -2 -64 17
-30 31 -36 31 -14 0 21 19 30 35 16 19 -16 195 46 195 69 -1 28 -38 101 -52
101 -7 -1 -53 -17 -101 -37z m118 -13 c25 -49 20 -56 -62 -83 -59 -19 -82 -23
-97 -15 -15 8 -22 7 -31 -6 -17 -22 -25 -20 -25 7 1 36 33 67 101 97 83 36 95
36 114 0z"/>
<path d="M12875 5479 c-12 -19 5 -23 22 -6 16 16 16 17 1 17 -9 0 -20 -5 -23
-11z"/>
<path d="M1607 4213 c-4 -3 -7 -26 -7 -50 0 -42 -1 -43 -33 -43 -49 0 -82 -39
-82 -95 0 -65 23 -85 96 -83 l59 2 0 138 c0 108 -3 138 -13 138 -8 0 -17 -3
-20 -7z m1 -175 c3 -43 1 -49 -23 -60 -33 -15 -58 7 -58 51 0 40 20 63 52 59
23 -3 26 -8 29 -50z"/>
<path d="M1020 4087 c0 -127 6 -147 42 -147 19 0 24 15 8 25 -6 4 -10 57 -10
126 0 112 -1 119 -20 119 -19 0 -20 -7 -20 -123z"/>
<path d="M1980 4075 c0 -128 1 -135 20 -135 18 0 20 7 20 65 0 60 2 66 25 77
37 17 48 0 53 -77 4 -56 7 -65 23 -65 17 0 19 8 19 68 0 93 -17 117 -76 108
l-44 -6 0 50 c0 43 -3 50 -20 50 -19 0 -20 -7 -20 -135z"/>
<path d="M3720 4080 c0 -137 5 -152 47 -136 12 5 14 9 5 18 -8 8 -12 53 -12
130 0 111 -1 118 -20 118 -19 0 -20 -7 -20 -130z"/>
<path d="M4596 4195 c-8 -22 1 -35 25 -35 15 0 20 6 17 22 -4 27 -33 36 -42
13z"/>
<path d="M6810 4075 c0 -128 1 -135 20 -135 18 0 20 7 20 65 0 60 2 66 25 77
40 18 55 -3 55 -79 0 -56 2 -64 18 -61 13 3 18 15 20 63 1 34 -3 71 -11 85
-14 28 -54 38 -87 20 -19 -10 -20 -8 -20 45 0 48 -2 55 -20 55 -19 0 -20 -7
-20 -135z"/>
<path d="M8013 4199 c-15 -15 -5 -39 17 -39 22 0 32 24 17 39 -6 6 -14 11 -17
11 -3 0 -11 -5 -17 -11z"/>
<path d="M11700 4075 l0 -135 58 0 c71 0 92 18 99 82 8 72 -42 117 -98 88 -18
-10 -19 -7 -19 45 0 48 -2 55 -20 55 -19 0 -20 -7 -20 -135z m102 -2 c37 -34
14 -108 -33 -101 -21 3 -24 9 -27 48 -3 33 1 47 14 57 23 16 24 16 46 -4z"/>
<path d="M6670 4189 c-20 -4 -47 -21 -62 -38 -24 -26 -28 -40 -28 -87 0 -50 3
-59 35 -91 32 -32 37 -34 92 -31 46 2 59 7 61 20 3 16 -2 17 -42 12 -41 -6
-48 -4 -75 24 -71 71 -15 176 85 158 31 -6 35 -5 32 10 -4 22 -50 33 -98 23z"/>
<path d="M10437 4194 c-16 -16 -7 -44 14 -44 15 0 20 5 17 22 -3 22 -19 33
-31 22z"/>
<path d="M12194 4189 c-10 -17 23 -46 37 -32 7 7 9 19 6 27 -7 18 -33 21 -43
5z"/>
<path d="M580 4090 c0 -94 2 -103 25 -125 36 -37 97 -35 136 4 28 28 29 33 29
125 0 89 -1 96 -20 96 -19 0 -20 -7 -20 -90 0 -77 -3 -93 -20 -110 -25 -25
-52 -26 -73 -2 -13 15 -17 39 -17 110 0 85 -1 92 -20 92 -19 0 -20 -7 -20
-100z"/>
<path d="M3510 4066 c0 -119 1 -126 20 -126 17 0 20 7 20 44 l0 43 47 6 c76 8
108 73 64 128 -15 19 -30 24 -85 27 l-66 4 0 -126z m118 67 c6 -9 12 -20 12
-25 0 -17 -41 -48 -65 -48 -23 0 -25 3 -25 51 l0 52 33 -7 c17 -3 38 -14 45
-23z"/>
<path d="M13244 4175 c-7 -18 3 -35 22 -35 20 0 30 30 13 41 -20 12 -29 11
-35 -6z"/>
<path d="M14412 4177 c-15 -17 1 -42 23 -33 18 6 17 37 -1 43 -6 2 -16 -2 -22
-10z"/>
<path d="M9890 4061 c0 -114 1 -121 20 -121 17 0 20 7 20 45 0 25 4 45 9 45 5
0 25 -20 45 -45 26 -31 45 -45 62 -45 l25 0 -36 47 -35 46 25 27 c55 57 21
111 -75 118 l-60 4 0 -121z m101 79 c39 -21 16 -70 -33 -70 -26 0 -28 3 -28
40 0 34 3 40 21 40 11 0 29 -5 40 -10z"/>
<path d="M11078 4169 c-20 -11 -24 -50 -8 -78 7 -14 4 -24 -15 -41 -51 -48
-18 -110 58 -110 24 0 48 5 55 12 9 9 15 9 24 0 7 -7 21 -12 31 -12 18 0 18 2
5 23 -9 13 -13 37 -10 60 3 29 1 37 -12 37 -11 0 -16 -9 -16 -26 0 -23 -2 -25
-16 -14 -31 27 -36 49 -14 72 25 27 26 50 2 71 -21 19 -58 22 -84 6z m62 -38
c0 -27 -26 -46 -34 -25 -11 29 -6 44 14 44 13 0 20 -7 20 -19z m14 -153 c-8
-12 -58 -10 -72 4 -15 15 -15 41 0 56 9 9 19 5 45 -20 18 -17 30 -35 27 -40z"/>
<path d="M12732 4054 c3 -102 5 -119 20 -122 13 -3 17 6 20 40 3 42 4 43 46
49 54 7 76 29 76 74 0 52 -22 68 -99 73 l-66 4 3 -118z m115 59 c13 -19 12
-24 -7 -43 -12 -12 -31 -20 -43 -18 -18 2 -23 11 -25 46 -3 43 -3 43 29 40 19
-2 37 -12 46 -25z"/>
<path d="M13880 4051 c0 -101 2 -121 15 -121 11 0 15 12 15 44 0 25 4 47 9 50
9 6 41 -27 71 -73 11 -16 23 -22 39 -19 23 3 22 4 -12 47 l-36 45 25 22 c28
27 33 84 8 105 -9 7 -42 15 -75 17 l-59 4 0 -121z m94 83 c19 -7 21 -45 4 -62
-7 -7 -22 -12 -35 -12 -20 0 -23 5 -23 40 0 41 13 50 54 34z"/>
<path d="M2393 4140 c-3 -11 -12 -20 -19 -20 -19 0 -18 -26 1 -34 11 -4 15
-20 15 -56 0 -70 12 -90 55 -90 40 0 50 26 13 32 -21 3 -23 9 -23 58 0 50 2
55 23 58 28 4 24 26 -6 30 -14 2 -22 11 -22 23 0 25 -30 25 -37 -1z"/>
<path d="M8593 4143 c-4 -10 -14 -24 -22 -30 -14 -12 -14 -14 2 -27 12 -10 17
-28 17 -68 0 -63 11 -78 57 -78 38 0 47 27 11 32 -20 3 -23 10 -26 55 -3 47
-1 52 20 55 33 5 37 38 4 38 -19 0 -26 5 -26 20 0 25 -28 27 -37 3z"/>
<path d="M12300 4135 c-5 -14 -14 -25 -20 -25 -5 0 -10 -7 -10 -15 0 -8 4 -15
9 -15 4 0 11 -25 14 -56 3 -30 11 -62 18 -70 16 -19 69 -19 69 1 0 8 -7 15
-15 15 -21 0 -36 43 -29 80 5 21 12 30 26 30 28 0 19 34 -10 38 -14 2 -22 10
-22 23 0 27 -19 24 -30 -6z"/>
<path d="M13693 4143 c-7 -3 -13 -11 -13 -19 0 -8 -7 -17 -15 -20 -17 -7 -21
-34 -5 -34 6 0 10 -24 10 -54 0 -36 5 -60 16 -70 20 -21 74 -21 74 -1 0 8 -9
15 -19 15 -23 0 -31 19 -31 70 0 32 4 39 22 42 29 4 34 26 6 30 -12 2 -25 12
-28 24 -3 11 -11 19 -17 17z"/>
<path d="M820 3990 c0 -123 1 -130 20 -130 17 0 20 7 20 44 0 39 2 44 20 39
58 -15 107 38 96 105 -10 62 -56 89 -107 62 -13 -7 -19 -7 -19 0 0 5 -7 10
-15 10 -13 0 -15 -21 -15 -130z m110 67 c13 -24 13 -30 0 -54 -11 -19 -24 -28
-40 -28 -23 0 -25 4 -28 49 -5 70 36 90 68 33z"/>
<path d="M1138 4100 c-44 -34 -44 -113 0 -146 28 -21 78 -17 109 10 22 19 28
32 28 64 0 79 -78 119 -137 72z m88 -38 c23 -47 -16 -110 -53 -86 -22 13 -29
79 -12 100 17 21 51 13 65 -14z"/>
<path d="M1333 4113 c-28 -11 -12 -30 24 -29 28 1 38 -3 41 -16 2 -12 -5 -19
-25 -24 -66 -15 -92 -54 -57 -88 18 -18 65 -21 81 -5 8 8 13 8 17 0 11 -16 46
-13 46 4 0 8 -4 15 -10 15 -6 0 -10 26 -10 59 0 41 -5 65 -16 75 -15 15 -65
20 -91 9z m65 -115 c-3 -25 -34 -36 -52 -18 -8 8 -6 15 8 26 29 21 48 18 44
-8z"/>
<path d="M1780 3990 c0 -123 1 -130 20 -130 17 0 20 7 20 40 0 40 0 40 39 40
31 0 44 6 60 26 25 32 28 100 5 132 -17 25 -71 31 -92 10 -9 -9 -12 -9 -12 0
0 7 -9 12 -20 12 -19 0 -20 -7 -20 -130z m108 88 c17 -17 15 -83 -2 -98 -8 -6
-25 -10 -38 -8 -19 3 -23 10 -26 48 -3 33 1 47 14 57 22 16 37 16 52 1z"/>
<path d="M2207 4100 c-46 -36 -45 -111 2 -147 9 -7 32 -13 52 -13 50 0 82 35
82 91 0 76 -78 115 -136 69z m81 -22 c7 -7 12 -28 12 -48 0 -39 -14 -60 -41
-60 -24 0 -42 26 -42 60 0 50 41 78 71 48z"/>
<path d="M2532 4105 c-27 -20 -42 -71 -30 -105 17 -45 38 -60 85 -60 38 0 46
4 63 33 30 49 23 102 -19 134 -22 17 -72 16 -99 -2z m88 -47 c13 -25 13 -31 0
-55 -28 -51 -80 -35 -80 25 0 63 50 82 80 30z"/>
<path d="M2716 4104 c-9 -8 -16 -27 -16 -40 0 -20 9 -29 46 -45 53 -24 53 -44
-2 -45 -47 0 -56 -27 -10 -32 97 -11 128 67 40 104 -41 17 -40 39 2 39 16 0
32 4 36 10 19 26 -71 35 -96 9z"/>
<path d="M3833 4113 c-29 -11 -12 -30 25 -29 31 1 37 -2 40 -21 3 -19 -1 -23
-26 -23 -16 0 -40 -9 -53 -19 -20 -16 -22 -23 -14 -47 10 -28 13 -29 83 -30
53 -1 72 2 72 12 0 7 -4 16 -10 19 -5 3 -10 30 -10 59 0 39 -5 57 -18 69 -18
16 -63 21 -89 10z m67 -128 c-16 -19 -55 -16 -55 5 0 16 45 31 59 19 5 -5 4
-15 -4 -24z"/>
<path d="M4017 4100 c-34 -27 -44 -77 -23 -118 18 -35 33 -42 87 -42 28 0 39
4 39 15 0 10 -10 15 -34 15 -40 0 -59 20 -59 62 0 39 28 61 66 54 23 -5 28 -3
25 12 -5 26 -68 28 -101 2z"/>
<path d="M4175 4095 c-34 -33 -35 -102 -2 -133 33 -31 133 -29 121 2 -3 7 -18
10 -39 8 -37 -4 -65 11 -65 34 0 10 15 14 55 14 54 0 55 0 55 30 0 65 -78 93
-125 45z m83 -27 c3 -15 -4 -18 -32 -18 -38 0 -44 8 -24 28 17 17 52 11 56
-10z"/>
<path d="M4445 4104 c-27 -28 -15 -65 30 -88 48 -25 47 -41 -3 -41 -36 1 -56
-11 -46 -27 3 -4 27 -8 53 -8 57 0 87 25 77 63 -5 23 -42 47 -71 47 -9 0 -15
9 -15 21 0 17 5 20 34 18 39 -4 58 7 36 21 -24 15 -77 11 -95 -6z"/>
<path d="M4700 4100 c-24 -24 -25 -48 -5 -77 11 -15 12 -24 4 -28 -6 -4 -8
-18 -5 -30 3 -13 2 -27 -4 -30 -17 -11 -11 -54 9 -65 45 -24 135 -5 146 32 15
45 -13 68 -82 68 -17 0 -35 5 -38 10 -3 6 5 10 19 10 58 0 99 42 82 85 -3 9 0
15 9 15 8 0 15 7 15 15 0 25 -124 21 -150 -5z m87 -26 c8 -22 -10 -49 -32 -49
-10 0 -22 7 -28 16 -15 24 -1 49 28 49 15 0 28 -7 32 -16z m18 -156 c14 -13
-13 -28 -52 -28 -36 0 -50 14 -33 35 12 15 66 11 85 -7z"/>
<path d="M4880 4030 c0 -83 1 -90 20 -90 18 0 20 7 20 65 0 53 3 66 19 75 39
20 51 3 51 -71 0 -62 2 -69 20 -69 18 0 20 7 20 78 0 47 -5 83 -12 90 -15 15
-74 16 -84 1 -4 -8 -9 -8 -17 0 -29 29 -37 11 -37 -79z"/>
<path d="M5193 4113 c-7 -2 -13 -11 -13 -18 0 -10 9 -12 33 -8 23 3 37 0 46
-11 18 -21 5 -36 -30 -36 -31 0 -69 -30 -69 -54 0 -32 29 -45 95 -44 45 1 65
5 65 14 0 7 -4 16 -10 19 -5 3 -10 30 -10 60 0 35 -5 59 -16 69 -15 15 -65 20
-91 9z m66 -124 c-6 -13 -18 -19 -32 -17 -30 4 -28 31 3 38 34 9 42 3 29 -21z"/>
<path d="M5356 4083 c-3 -21 -6 -62 -6 -90 0 -46 3 -53 20 -53 18 0 20 7 20
55 0 56 2 60 56 105 17 14 17 15 1 18 -10 2 -25 -2 -34 -10 -13 -10 -17 -10
-20 0 -9 25 -31 11 -37 -25z"/>
<path d="M5503 4096 c-60 -52 -22 -156 58 -156 47 0 69 8 63 24 -3 7 -18 10
-39 8 -37 -4 -65 11 -65 34 0 10 15 14 55 14 54 0 55 1 55 28 0 35 -37 72 -73
72 -14 0 -38 -11 -54 -24z m85 -28 c3 -15 -4 -18 -32 -18 -38 0 -44 8 -24 28
17 17 52 11 56 -10z"/>
<path d="M5683 4114 c-22 -10 -3 -30 25 -27 15 2 33 -1 41 -6 21 -14 5 -41
-24 -41 -42 0 -65 -17 -65 -49 0 -41 17 -50 93 -49 62 0 81 8 57 23 -5 3 -10
31 -10 61 0 41 -5 59 -20 74 -19 19 -67 26 -97 14z m75 -116 c-3 -25 -34 -36
-52 -18 -8 8 -6 15 8 26 29 21 48 18 44 -8z"/>
<path d="M5861 4101 c-36 -36 -25 -62 33 -86 48 -20 42 -40 -13 -39 -33 1 -41
-3 -39 -15 6 -33 112 -26 123 9 11 34 -4 57 -46 74 -49 20 -47 41 5 40 29 -1
36 2 34 15 -5 26 -72 27 -97 2z"/>
<path d="M7037 4100 c-34 -27 -44 -78 -23 -118 17 -33 33 -42 80 -42 75 0 111
106 53 156 -34 29 -76 31 -110 4z m82 -24 c17 -21 10 -87 -11 -100 -23 -14
-50 2 -62 37 -18 50 42 101 73 63z"/>
<path d="M7233 4096 c-59 -51 -22 -156 54 -156 48 0 70 14 83 55 31 93 -64
163 -137 101z m96 -37 c30 -53 -27 -117 -67 -77 -16 16 -15 81 0 96 19 19 51
10 67 -19z"/>
<path d="M7426 4104 c-28 -28 -16 -65 29 -88 48 -25 47 -41 -3 -41 -36 1 -56
-11 -46 -27 3 -4 27 -8 53 -8 56 0 74 15 69 57 -2 21 -12 32 -40 46 -50 23
-50 47 -2 47 47 0 41 24 -8 28 -23 2 -41 -3 -52 -14z"/>
<path d="M7597 4100 c-34 -27 -44 -78 -23 -119 18 -33 44 -44 96 -39 49 5 51
28 2 28 -35 0 -72 22 -72 43 0 4 28 7 61 7 l62 0 -7 33 c-12 62 -70 85 -119
47z m73 -25 c18 -21 9 -27 -36 -23 -36 3 -37 4 -20 21 21 21 40 22 56 2z"/>
<path d="M7860 4102 c-35 -28 -21 -65 31 -86 51 -21 46 -41 -10 -40 -33 1 -41
-3 -39 -15 5 -26 89 -27 112 -2 28 31 14 66 -35 85 -47 19 -47 41 -1 42 38 0
52 12 32 24 -24 15 -66 11 -90 -8z"/>
<path d="M8010 4030 c0 -83 1 -90 20 -90 19 0 20 7 20 90 0 83 -1 90 -20 90
-19 0 -20 -7 -20 -90z"/>
<path d="M8111 4094 c-25 -32 -26 -43 -6 -71 11 -15 12 -24 4 -28 -6 -4 -8
-18 -5 -30 3 -13 2 -27 -4 -30 -17 -11 -11 -54 9 -65 34 -18 105 -12 129 10
45 42 12 90 -60 90 -21 0 -38 5 -38 10 0 6 14 10 30 10 38 0 70 32 70 70 0 20
5 30 15 30 8 0 15 7 15 15 0 12 -14 15 -69 15 -63 0 -71 -2 -90 -26z m87 -30
c6 -40 -48 -56 -62 -18 -10 26 5 45 33 42 17 -2 27 -10 29 -24z m21 -140 c2
-2 1 -10 -2 -19 -4 -10 -20 -15 -47 -15 -32 0 -40 4 -40 18 0 10 3 22 7 25 6
7 73 -1 82 -9z"/>
<path d="M8290 4030 c0 -83 1 -90 20 -90 18 0 20 7 20 65 0 60 2 66 25 77 40
18 55 -3 55 -78 0 -57 2 -64 20 -64 18 0 20 7 20 70 0 57 -4 74 -20 90 -22 22
-51 26 -80 10 -13 -7 -21 -7 -25 0 -3 5 -13 10 -21 10 -11 0 -14 -18 -14 -90z"/>
<path d="M8690 4112 c0 -5 14 -46 30 -91 33 -90 32 -118 -6 -127 -35 -9 -31
-34 5 -34 19 0 35 8 45 21 20 29 90 228 83 235 -16 16 -38 -11 -56 -68 -15
-49 -21 -58 -26 -43 -24 69 -38 101 -48 107 -16 10 -27 10 -27 0z"/>
<path d="M8880 3990 c0 -123 1 -130 20 -130 17 0 20 7 20 43 l0 43 39 -4 c32
-3 42 1 60 23 44 56 13 155 -48 155 -15 0 -32 -5 -38 -11 -8 -8 -13 -8 -17 0
-4 6 -14 11 -22 11 -11 0 -14 -23 -14 -130z m104 84 c35 -35 10 -109 -35 -102
-21 3 -24 9 -27 52 -4 63 26 87 62 50z"/>
<path d="M9095 4094 c-32 -34 -33 -91 -4 -128 19 -24 27 -27 73 -24 37 2 51 7
51 18 0 11 -9 14 -38 12 -39 -4 -67 10 -67 34 0 10 16 14 60 14 65 0 66 1 49
49 -20 57 -83 69 -124 25z m83 -26 c3 -15 -4 -18 -32 -18 -38 0 -44 8 -24 28
17 17 52 11 56 -10z"/>
<path d="M9282 4114 c-7 -3 -17 -14 -22 -25 -15 -27 3 -56 45 -74 20 -8 35
-21 35 -31 0 -13 -8 -15 -40 -12 -24 2 -41 -1 -44 -8 -7 -18 4 -24 46 -24 55
0 78 15 78 49 0 32 -11 44 -55 58 -44 14 -39 38 8 38 28 0 37 4 35 15 -3 15
-60 24 -86 14z"/>
<path d="M10540 4092 c-37 -37 -40 -86 -9 -126 18 -23 27 -27 68 -24 32 2 47
8 49 19 2 12 -5 14 -33 11 -37 -4 -65 10 -65 34 0 10 15 14 55 14 51 0 55 2
55 24 0 31 -28 64 -62 72 -22 5 -33 0 -58 -24z m68 -14 c20 -20 14 -28 -23
-28 -19 0 -35 4 -35 8 0 12 22 32 35 32 6 0 16 -5 23 -12z"/>
<path d="M11372 4104 c-35 -24 -26 -64 20 -89 51 -27 50 -48 -2 -43 -24 2 -41
-1 -44 -8 -7 -19 4 -24 49 -24 85 0 102 73 24 103 -36 14 -40 19 -29 32 9 11
22 14 42 10 35 -8 40 19 6 29 -34 9 -41 8 -66 -10z"/>
<path d="M11960 4111 c-8 -6 -25 -8 -37 -4 -23 5 -23 3 -23 -81 0 -80 1 -86
21 -86 19 0 20 5 18 67 -2 62 -1 67 22 75 34 13 49 -13 49 -84 0 -45 3 -58 15
-58 12 0 15 14 15 65 0 55 3 66 21 75 35 19 49 -3 49 -76 0 -57 2 -64 20 -64
18 0 20 7 20 73 0 87 -18 115 -67 103 -34 -9 -51 -9 -83 -1 -14 3 -32 1 -40
-4z"/>
<path d="M4600 4025 c0 -78 2 -85 20 -85 18 0 20 7 20 85 0 78 -2 85 -20 85
-18 0 -20 -7 -20 -85z"/>
<path d="M10101 4084 c-28 -35 -28 -93 -1 -122 26 -27 120 -33 120 -7 0 11
-11 15 -38 15 -39 0 -62 14 -62 37 0 9 17 13 55 13 51 0 55 2 55 23 0 67 -87
94 -129 41z m77 -6 c21 -21 13 -37 -18 -36 -36 1 -46 13 -30 33 15 18 32 19
48 3z"/>
<path d="M10250 4103 c0 -4 12 -43 27 -85 22 -65 30 -78 48 -78 18 0 26 13 50
80 15 45 25 83 22 87 -15 14 -35 -9 -47 -54 -19 -71 -21 -71 -45 -7 -13 35
-29 60 -38 62 -10 2 -17 0 -17 -5z"/>
<path d="M10430 4025 c0 -78 2 -85 20 -85 18 0 20 7 20 85 0 78 -2 85 -20 85
-18 0 -20 -7 -20 -85z"/>
<path d="M10680 4103 c0 -5 11 -42 23 -83 18 -57 28 -76 43 -78 16 -2 23 8 38
53 9 30 19 55 21 55 2 0 11 -25 20 -55 12 -42 20 -55 34 -55 15 0 25 17 45 78
31 92 31 92 6 92 -16 0 -22 -11 -32 -60 -6 -33 -14 -57 -17 -54 -3 3 -12 28
-21 57 -12 39 -20 52 -35 52 -15 0 -23 -13 -35 -52 -20 -66 -26 -72 -33 -31
-9 53 -25 88 -42 88 -8 0 -15 -3 -15 -7z"/>
<path d="M11500 4053 c0 -32 6 -69 13 -83 11 -22 19 -25 75 -26 l62 -1 0 83
c0 67 -3 84 -15 84 -10 0 -15 -16 -17 -61 -2 -46 -8 -65 -20 -73 -34 -21 -53
4 -56 73 -3 53 -6 61 -22 61 -18 0 -20 -7 -20 -57z"/>
<path d="M12200 4025 c0 -78 2 -85 20 -85 18 0 20 7 20 85 0 78 -2 85 -20 85
-18 0 -20 -7 -20 -85z"/>
<path d="M12988 4096 c-16 -8 -28 -11 -28 -5 0 5 -7 9 -15 9 -12 0 -15 -16
-15 -85 0 -65 3 -85 14 -85 9 0 16 21 22 63 7 50 13 64 32 72 12 5 22 18 22
27 0 21 2 21 -32 4z"/>
<path d="M13370 4097 c-13 -7 -30 -29 -38 -49 -12 -30 -12 -41 0 -64 19 -40
56 -58 102 -50 46 9 44 32 -3 28 -33 -4 -76 22 -65 39 3 5 27 9 55 9 48 0 49
1 49 29 0 20 -9 36 -26 50 -31 24 -40 25 -74 8z m59 -36 c9 -17 6 -19 -25 -23
-43 -5 -49 0 -27 24 21 23 40 23 52 -1z"/>
<path d="M13563 4103 c-13 -2 -32 -16 -43 -30 -47 -61 -6 -147 67 -141 45 4
58 28 15 28 -38 0 -62 23 -62 60 0 35 38 65 70 55 14 -5 20 -2 20 9 0 9 -4 16
-9 16 -5 0 -15 2 -23 4 -7 2 -23 1 -35 -1z"/>
<path d="M14533 4095 c-16 -7 -33 -20 -37 -30 -8 -22 -7 -87 2 -101 19 -30 90
-44 121 -25 22 14 5 28 -29 23 -32 -5 -60 11 -60 34 0 10 14 14 50 14 48 0 50
1 50 28 0 49 -48 78 -97 57z m57 -30 c15 -19 14 -20 -26 -28 -40 -8 -49 1 -27
25 20 22 36 23 53 3z"/>
<path d="M13061 4074 c-45 -58 -10 -144 59 -144 46 0 68 16 81 59 10 34 9 44
-8 73 -17 29 -25 33 -65 36 -40 3 -49 -1 -67 -24z m105 -40 c10 -38 -10 -74
-40 -74 -46 0 -64 76 -24 104 27 19 55 6 64 -30z"/>
<path d="M13248 3998 c-3 -98 -4 -103 -25 -106 -13 -2 -23 -10 -23 -18 0 -11
10 -14 38 -12 35 3 38 6 46 45 12 58 -1 193 -20 193 -10 0 -14 -23 -16 -102z"/>
<path d="M14081 4074 c-45 -57 -10 -144 58 -144 39 0 61 9 61 25 0 10 -10 12
-35 8 -37 -6 -65 9 -65 33 0 10 15 14 55 14 51 0 55 2 55 23 0 67 -87 94 -129
41z m79 -9 c17 -21 9 -27 -31 -23 -31 3 -32 4 -15 21 21 21 30 21 46 2z"/>
<path d="M14253 4015 c41 -112 59 -113 98 -5 33 89 34 92 12 88 -9 -2 -25 -27
-38 -62 l-22 -58 -19 58 c-15 44 -25 60 -41 62 -20 3 -20 1 10 -83z"/>
<path d="M14410 4015 c0 -78 2 -85 20 -85 18 0 20 7 20 85 0 78 -2 85 -20 85
-18 0 -20 -7 -20 -85z"/>
<path d="M14676 4023 c13 -43 24 -81 24 -85 0 -5 9 -8 19 -8 15 0 24 13 37 55
10 30 21 52 24 48 4 -5 13 -29 20 -55 9 -35 18 -48 31 -48 14 0 23 17 39 71
12 39 24 78 27 85 3 9 -2 14 -14 14 -16 0 -22 -11 -32 -55 -7 -30 -16 -55 -20
-55 -4 0 -13 25 -20 55 -10 43 -17 55 -32 55 -15 0 -23 -13 -36 -61 -18 -66
-22 -65 -43 19 -8 31 -16 42 -30 42 -18 0 -17 -3 6 -77z"/>
<path d="M1202 3388 c-2 -107 0 -118 16 -118 12 0 13 3 5 8 -8 5 -13 45 -16
117 l-3 110 -2 -117z"/>
<path d="M1690 3455 c0 -44 0 -44 -29 -39 -40 8 -71 -24 -71 -72 0 -61 14 -75
70 -72 l50 3 0 113 c0 68 -4 112 -10 112 -5 0 -10 -20 -10 -45z m0 -109 c0
-56 -8 -66 -50 -66 -21 0 -40 28 -40 57 0 33 29 63 61 63 29 0 29 -1 29 -54z"/>
<path d="M1992 3388 c-2 -107 0 -118 16 -118 12 0 13 3 5 8 -8 5 -13 45 -16
117 l-3 110 -2 -117z"/>
<path d="M7474 3385 c0 -66 1 -103 3 -82 2 20 7 37 11 37 4 0 20 -16 35 -35
15 -19 35 -35 44 -35 13 0 9 9 -15 33 -18 18 -32 37 -32 42 0 5 12 22 27 37
15 15 22 28 17 28 -6 0 -23 -13 -39 -30 -16 -16 -32 -30 -36 -30 -5 0 -10 35
-12 78 -2 48 -3 32 -3 -43z"/>
<path d="M8745 3388 c0 -105 1 -113 20 -115 11 -2 14 0 8 3 -9 4 -13 37 -13
115 0 60 -3 109 -7 109 -5 0 -8 -51 -8 -112z"/>
<path d="M11384 3385 c0 -66 1 -103 3 -82 2 20 8 37 12 37 4 0 22 -16 41 -35
19 -19 38 -35 44 -35 6 0 -7 17 -27 38 l-37 38 33 33 c20 21 24 29 12 23 -11
-6 -27 -20 -35 -31 -28 -40 -39 -25 -43 57 -2 48 -3 32 -3 -43z"/>
<path d="M4580 3373 c2 -65 6 -101 8 -80 2 20 7 37 11 37 4 0 22 -16 41 -35
48 -50 58 -43 14 10 -20 25 -32 45 -27 45 5 0 20 15 33 33 l23 32 -35 -32
c-51 -49 -58 -44 -58 37 0 39 -3 70 -7 70 -5 0 -6 -53 -3 -117z"/>
<path d="M5054 3375 c-1 -88 1 -103 5 -56 6 59 8 65 34 74 41 13 55 -4 60 -76
3 -54 4 -52 3 13 -1 74 -1 75 -28 78 -15 2 -36 -2 -47 -7 -19 -10 -20 -8 -24
41 -2 29 -3 -1 -3 -67z"/>
<path d="M7240 3476 c0 -9 5 -16 10 -16 6 0 10 4 10 9 0 6 -4 13 -10 16 -5 3
-10 -1 -10 -9z"/>
<path d="M8506 3481 c-4 -5 -2 -12 3 -15 5 -4 12 -2 15 3 4 5 2 12 -3 15 -5 4
-12 2 -15 -3z"/>
<path d="M13238 3479 c-12 -6 -18 -22 -18 -44 0 -24 -5 -35 -17 -38 -17 -4
-17 -5 0 -6 14 -1 17 -12 17 -73 0 -39 3 -68 7 -64 4 4 8 19 9 34 0 15 2 44 2
64 2 32 6 37 30 41 l27 4 -27 2 c-25 1 -28 5 -28 36 0 31 3 35 26 35 14 0 23
4 19 10 -8 13 -25 12 -47 -1z"/>
<path d="M14494 3376 c1 -97 4 -120 16 -124 12 -4 13 -2 3 9 -7 9 -14 58 -16
125 l-3 109 0 -119z"/>
<path d="M13910 3440 c0 -40 0 -40 -39 -40 -47 0 -71 -26 -71 -77 0 -55 56
-93 88 -61 10 10 15 10 22 -2 6 -10 10 25 10 103 0 64 -2 117 -5 117 -3 0 -5
-18 -5 -40z m-12 -62 c7 -7 12 -31 12 -53 0 -35 -4 -44 -25 -53 -32 -15 -31
-15 -49 4 -19 18 -21 85 -4 102 7 7 21 12 33 12 12 0 26 -5 33 -12z"/>
<path d="M822 3388 c-2 -100 8 -118 66 -118 68 0 82 26 72 130 l-7 75 -2 -82
c-1 -91 -13 -113 -60 -113 -42 0 -55 24 -62 114 l-6 81 -1 -87z"/>
<path d="M4040 3397 c0 -41 -3 -89 -6 -106 -4 -19 -2 -31 4 -31 7 0 12 36 14
98 l3 97 39 -97 c21 -54 41 -98 45 -98 3 0 22 39 41 86 19 47 38 88 42 90 4 3
8 -36 8 -85 0 -54 4 -91 10 -91 11 0 13 69 4 148 -4 32 -12 52 -20 52 -7 0
-27 -36 -45 -80 -18 -44 -36 -80 -40 -80 -3 0 -19 34 -35 76 -16 42 -37 80
-46 85 -16 9 -18 3 -18 -64z"/>
<path d="M7066 3418 c-9 -77 -7 -148 3 -148 6 0 11 17 13 37 3 35 6 38 40 44
49 8 68 25 68 63 0 44 -16 56 -71 56 l-46 0 -7 -52z m99 18 c25 -38 5 -66 -45
-66 l-40 0 0 45 c0 45 0 45 35 45 26 0 39 -6 50 -24z"/>
<path d="M10246 3454 c-31 -30 -16 -58 46 -88 39 -19 43 -24 41 -55 -1 -30 0
-32 14 -18 27 27 9 65 -43 87 -74 32 -69 76 9 83 l42 4 -47 1 c-31 1 -52 -3
-62 -14z"/>
<path d="M13310 3460 c0 -5 7 -10 16 -10 8 0 12 5 9 10 -3 6 -10 10 -16 10 -5
0 -9 -4 -9 -10z"/>
<path d="M14405 3460 c-3 -5 1 -10 9 -10 9 0 16 5 16 10 0 6 -4 10 -9 10 -6 0
-13 -4 -16 -10z"/>
<path d="M12882 3354 c1 -79 3 -95 7 -59 8 63 24 65 69 5 19 -25 41 -47 49
-48 9 -3 1 15 -21 44 l-36 47 22 11 c25 12 35 60 19 85 -5 7 -32 16 -60 19
l-51 5 2 -109z m82 83 c12 -9 17 -23 14 -42 -3 -27 -7 -30 -45 -33 l-43 -3 0
39 c0 21 3 42 7 45 11 11 48 8 67 -6z"/>
<path d="M8141 3438 c0 -9 -9 -22 -18 -27 -10 -6 -12 -11 -5 -11 7 0 12 -14
12 -34 0 -18 3 -48 6 -65 5 -26 11 -31 33 -30 23 2 24 2 4 6 -21 4 -23 10 -23
63 0 53 2 59 23 63 22 4 22 4 0 6 -14 1 -23 9 -26 24 -3 13 -5 16 -6 5z"/>
<path d="M14151 3427 c0 -10 -8 -20 -17 -24 -15 -5 -15 -7 0 -15 12 -7 16 -24
16 -67 0 -61 8 -72 48 -70 10 1 6 4 -8 8 -23 6 -25 12 -28 68 -3 57 -1 62 20
66 22 4 22 4 1 6 -14 1 -23 9 -26 24 -3 15 -5 17 -6 4z"/>
<path d="M1070 3410 c-8 -5 -23 -7 -32 -4 -16 5 -18 -4 -18 -100 0 -64 4 -106
10 -106 10 0 13 40 10 136 -1 44 2 52 23 61 36 16 67 -8 67 -51 0 -40 -17 -63
-50 -69 l-25 -4 26 -2 c42 -2 62 20 62 69 0 33 -6 48 -23 62 -25 21 -29 21
-50 8z"/>
<path d="M1310 3413 c-42 -15 -56 -96 -22 -126 19 -18 59 -22 78 -9 34 22 41
96 11 120 -17 14 -50 21 -67 15z m64 -45 c15 -43 -3 -82 -39 -86 -47 -6 -71
49 -44 99 16 31 71 22 83 -13z"/>
<path d="M1465 3410 c-17 -6 -14 -8 15 -11 27 -3 36 -9 38 -26 2 -16 -3 -23
-20 -26 l-23 -4 23 -2 c34 -2 31 -48 -4 -57 -34 -9 -53 10 -36 36 15 24 0 27
-19 4 -25 -30 1 -49 67 -50 32 0 52 1 43 3 -12 3 -15 14 -11 57 4 47 2 55 -19
70 -26 18 -26 18 -54 6z"/>
<path d="M1872 3410 c-26 -11 -45 -54 -36 -84 12 -38 35 -56 73 -55 l36 1 -39
8 c-42 8 -56 22 -56 61 0 33 28 59 66 60 25 0 26 2 9 9 -25 11 -25 11 -53 0z"/>
<path d="M2245 3410 c-17 -6 -14 -8 15 -11 27 -3 36 -9 38 -25 2 -18 -3 -23
-31 -28 -40 -7 -60 -27 -55 -53 3 -15 14 -18 68 -19 36 0 59 1 52 4 -7 2 -12
23 -12 53 0 36 -5 54 -20 69 -22 22 -25 23 -55 10z m55 -95 c0 -18 -7 -26 -24
-31 -43 -11 -65 24 -28 45 31 19 52 13 52 -14z"/>
<path d="M7746 3405 c-18 -10 -26 -10 -30 -2 -2 7 -4 -22 -3 -63 1 -63 1 -66
4 -20 5 64 15 80 54 80 29 0 29 0 29 -65 0 -83 18 -85 22 -2 3 62 3 62 35 65
36 4 40 -4 46 -88 3 -33 4 -28 5 22 2 53 -1 69 -14 76 -18 10 -51 5 -71 -11
-9 -6 -13 -6 -13 1 0 16 -37 21 -64 7z"/>
<path d="M7995 3410 c-17 -6 -14 -8 15 -11 26 -3 36 -9 38 -25 2 -16 -5 -22
-34 -30 -66 -16 -75 -75 -12 -73 25 1 27 3 10 6 -49 9 -31 63 21 63 16 0 18
-6 15 -30 -3 -19 0 -31 10 -35 21 -8 27 -6 16 5 -6 6 -9 32 -7 58 2 26 0 52
-4 58 -12 17 -45 24 -68 14z"/>
<path d="M8270 3413 c-26 -9 -40 -35 -40 -74 0 -50 21 -69 73 -67 41 1 41 1 7
5 -37 5 -70 28 -70 49 0 9 18 14 53 16 49 3 52 4 49 28 -2 14 -7 28 -10 31
-11 11 -46 18 -62 12z m48 -25 c24 -24 13 -38 -28 -38 -32 0 -40 4 -40 18 0
10 3 22 7 25 11 11 48 8 61 -5z"/>
<path d="M8433 3405 c-17 -12 -22 -12 -26 -2 -3 6 -5 -22 -4 -63 0 -58 2 -63
4 -23 3 42 9 56 30 73 30 24 27 37 -4 15z"/>
<path d="M8511 3348 c0 -43 2 -78 7 -78 4 0 6 24 4 52 -5 95 -9 104 -11 26z"/>
<path d="M8605 3410 c-16 -7 -13 -9 17 -9 28 -1 38 -6 43 -22 8 -25 10 -23
-40 -35 -36 -8 -40 -12 -40 -39 0 -30 0 -30 60 -31 33 -1 54 1 48 3 -9 3 -13
25 -13 63 0 48 -4 61 -19 70 -23 12 -29 12 -56 0z m65 -88 c0 -38 -61 -60 -74
-26 -9 23 -8 24 17 34 36 14 57 12 57 -8z"/>
<path d="M8842 3409 c-15 -6 -22 -17 -22 -33 0 -19 8 -28 35 -37 19 -7 36 -17
37 -21 5 -28 -1 -34 -42 -39 l-45 -7 50 2 c47 1 50 3 53 29 3 23 -2 30 -32 42
-19 8 -37 18 -40 23 -9 15 9 30 39 34 25 3 26 4 10 9 -12 3 -31 2 -43 -2z"/>
<path d="M11762 3409 c-12 -4 -29 -6 -37 -3 -13 5 -15 -10 -15 -100 0 -64 4
-106 10 -106 6 0 10 15 10 34 0 34 1 35 43 38 38 3 43 6 53 37 21 64 -15 119
-64 100z m52 -41 c6 -18 6 -38 0 -55 -8 -23 -15 -28 -44 -28 -35 0 -35 0 -38
49 -4 54 7 68 48 64 17 -2 28 -12 34 -30z"/>
<path d="M2077 3392 c-23 -25 -22 -85 1 -105 11 -10 34 -16 53 -16 l34 1 -39
8 c-37 7 -56 23 -56 48 0 8 17 12 54 12 51 0 54 1 49 23 -7 26 -22 47 -35 47
-5 0 -2 -7 6 -16 30 -29 20 -44 -29 -44 -49 0 -55 10 -25 40 11 11 16 20 12
20 -5 0 -16 -8 -25 -18z"/>
<path d="M2382 3340 c1 -61 2 -65 5 -23 3 42 9 56 30 73 18 14 21 20 10 20 -9
0 -19 -5 -23 -11 -4 -8 -9 -7 -15 2 -5 9 -8 -16 -7 -61z"/>
<path d="M4316 3401 c-3 -4 6 -6 19 -3 30 5 55 -13 55 -39 0 -14 -7 -19 -26
-19 -53 0 -84 -41 -51 -68 17 -14 108 -11 97 3 -5 6 -8 35 -8 64 1 36 -3 56
-13 62 -18 11 -66 12 -73 0z m74 -91 c0 -22 -34 -44 -56 -36 -14 6 -19 37 -7
49 3 4 19 7 35 7 21 0 28 -5 28 -20z"/>
<path d="M4472 3335 c1 -44 3 -62 5 -40 6 68 12 84 41 99 16 9 21 15 12 16 -9
0 -22 -6 -28 -12 -10 -10 -15 -10 -22 2 -7 10 -9 -12 -8 -65z"/>
<path d="M4800 3398 c0 -25 42 -138 51 -138 5 0 17 27 26 60 10 33 21 60 24
60 3 0 13 -27 22 -60 24 -85 31 -81 71 43 8 26 11 47 6 47 -8 0 -16 -23 -36
-102 -10 -43 -19 -34 -35 34 -8 34 -19 63 -25 65 -6 2 -19 -24 -29 -57 -10
-33 -21 -60 -25 -60 -4 0 -12 25 -19 55 -11 51 -31 84 -31 53z"/>
<path d="M5236 3397 c-9 -7 -20 -31 -23 -54 -7 -52 20 -83 72 -83 19 0 35 4
35 8 0 5 -12 7 -28 4 -19 -2 -33 3 -46 17 -29 32 -14 51 39 51 49 0 56 10 29
48 -17 25 -51 29 -78 9z m72 -24 c14 -23 14 -23 -32 -23 -49 0 -56 8 -30 35
21 20 43 16 62 -12z"/>
<path d="M5382 3335 c1 -44 3 -62 5 -40 6 68 12 84 41 99 17 10 21 15 11 16
-9 0 -23 -7 -30 -16 -12 -14 -14 -14 -20 3 -4 10 -7 -18 -7 -62z"/>
<path d="M5496 3394 c-32 -32 -32 -87 0 -119 17 -17 79 -20 89 -5 4 6 -6 7
-25 4 -22 -5 -36 -2 -50 11 -34 31 -25 45 30 45 46 0 50 2 50 24 0 49 -60 75
-94 40z m68 -10 c24 -23 20 -32 -18 -40 -35 -6 -56 0 -56 16 0 13 30 40 45 40
7 0 21 -7 29 -16z"/>
<path d="M7240 3340 c0 -40 4 -70 10 -70 6 0 10 30 10 70 0 40 -4 70 -10 70
-6 0 -10 -30 -10 -70z"/>
<path d="M7331 3396 c-7 -8 -15 -30 -18 -49 -7 -47 22 -78 75 -76 l37 2 -40 6
c-31 5 -42 12 -49 32 -12 36 0 78 27 89 22 9 22 9 1 9 -12 1 -27 -5 -33 -13z"/>
<path d="M7398 3403 c7 -3 16 -2 19 1 4 3 -2 6 -13 5 -11 0 -14 -3 -6 -6z"/>
<path d="M10417 3392 c-23 -25 -22 -85 1 -105 11 -11 34 -17 58 -16 l39 2 -43
7 c-42 6 -62 21 -62 48 0 8 17 12 54 12 51 0 54 1 49 23 -3 12 -10 28 -16 35
-14 18 -62 15 -80 -6z m71 -4 c25 -25 13 -38 -33 -38 -49 0 -50 1 -35 31 12
21 50 25 68 7z"/>
<path d="M10565 3380 c-19 -37 -19 -60 1 -88 12 -17 24 -22 57 -20 41 1 41 1
7 5 -42 5 -60 19 -60 44 0 16 8 19 50 19 39 0 50 4 50 16 0 34 -20 54 -55 54
-28 0 -37 -6 -50 -30z m85 1 c15 -30 14 -31 -35 -31 -25 0 -45 3 -45 6 0 20
24 44 45 44 14 0 29 -8 35 -19z"/>
<path d="M10802 3337 c2 -66 2 -68 5 -17 3 30 9 60 14 66 6 8 5 14 -6 18 -13
4 -15 -6 -13 -67z"/>
<path d="M10857 3403 c32 -6 41 -23 46 -83 l3 -55 2 62 c2 58 4 63 27 69 44
11 54 0 58 -68 l4 -63 -1 70 -1 70 -80 1 c-44 0 -70 -1 -58 -3z"/>
<path d="M11071 3397 c-21 -26 -24 -75 -7 -102 31 -47 114 -27 117 28 2 36 -2
61 -13 75 -14 16 -83 15 -97 -1z m93 -29 c15 -43 -3 -82 -39 -86 -47 -6 -71
49 -44 99 16 31 71 22 83 -13z"/>
<path d="M11254 3402 c-38 -25 -40 -103 -4 -122 33 -18 44 -11 16 11 -49 39
-27 102 39 112 29 4 29 4 -5 5 -19 1 -40 -2 -46 -6z"/>
<path d="M11544 3345 c1 -62 3 -70 21 -73 16 -3 17 -1 5 7 -9 6 -17 34 -21 73
l-6 63 1 -70z"/>
<path d="M11643 3340 c0 -41 2 -58 4 -37 2 20 2 54 0 75 -2 20 -4 3 -4 -38z"/>
<path d="M11887 3403 c-4 -3 -7 -17 -7 -30 0 -16 9 -27 34 -37 44 -18 54 -35
30 -53 -19 -14 -19 -15 1 -11 13 2 21 12 23 30 3 23 -3 30 -35 45 -48 23 -49
46 -3 54 l35 6 -36 2 c-20 0 -39 -2 -42 -6z"/>
<path d="M13066 3384 c-58 -57 4 -161 76 -126 21 10 19 11 -19 11 -31 1 -45 6
-53 20 -18 34 -12 41 40 41 46 0 50 2 50 23 0 13 -5 28 -12 35 -17 17 -64 15
-82 -4z m74 -13 c15 -30 14 -31 -35 -31 -25 0 -45 3 -45 6 0 20 24 44 45 44
14 0 29 -8 35 -19z"/>
<path d="M13318 3324 c2 -42 5 -74 6 -72 2 1 6 36 10 76 5 54 3 72 -6 72 -10
0 -12 -20 -10 -76z"/>
<path d="M13401 3325 l2 -70 6 58 c6 58 19 77 52 77 26 0 38 -22 42 -80 3 -44
4 -41 3 15 l-1 70 -52 0 -53 1 1 -71z"/>
<path d="M13576 3378 c-23 -33 -20 -75 9 -103 24 -25 69 -33 80 -15 4 6 -8 10
-27 10 -38 0 -58 15 -58 42 0 15 9 18 50 18 53 0 61 10 40 51 -15 28 -74 26
-94 -3z m84 -7 c15 -30 14 -31 -35 -31 -30 0 -45 4 -45 13 0 37 62 51 80 18z"/>
<path d="M13997 3387 c-10 -6 -20 -29 -23 -49 -5 -30 -2 -41 19 -62 28 -28 52
-32 77 -15 12 8 10 9 -8 4 -29 -8 -72 19 -72 45 0 17 7 20 50 20 53 0 56 3 40
44 -11 29 -53 36 -83 13z m74 -24 c8 -22 6 -23 -36 -23 -30 0 -45 4 -45 13 0
41 67 48 81 10z"/>
<path d="M14256 3392 c-3 -5 6 -7 19 -4 30 5 55 -13 55 -39 0 -14 -7 -19 -28
-19 -36 0 -65 -21 -61 -45 6 -30 33 -40 68 -25 31 13 32 14 29 74 l-3 61 -37
3 c-20 2 -39 -1 -42 -6z m74 -92 c0 -22 -34 -44 -56 -36 -14 6 -19 37 -7 49 3
4 19 7 35 7 21 0 28 -5 28 -20z"/>
<path d="M14410 3325 c0 -98 14 -98 17 0 1 43 -2 75 -7 75 -6 0 -10 -33 -10
-75z"/>
<path d="M14570 3385 c-19 -23 -7 -47 30 -60 23 -8 36 -19 38 -32 4 -24 -26
-38 -58 -28 -11 4 -20 2 -20 -4 0 -21 68 -12 84 10 19 28 11 47 -31 64 -45 19
-42 48 7 56 l35 6 -36 2 c-21 0 -42 -5 -49 -14z"/>
<path d="M8959 3300 c0 -3 -2 -23 -3 -45 l-3 -40 15 33 c12 25 13 35 4 44 -7
7 -12 10 -13 8z"/>
<path d="M12019 3298 c0 -2 -2 -21 -3 -42 -3 -35 -2 -37 10 -21 16 22 18 51 4
60 -5 3 -10 5 -11 3z"/>
<path d="M10258 3273 c12 -2 32 -2 45 0 12 2 2 4 -23 4 -25 0 -35 -2 -22 -4z"/>
<path d="M11888 3273 c6 -2 18 -2 25 0 6 3 1 5 -13 5 -14 0 -19 -2 -12 -5z"/>
<path d="M1760 3040 c-11 -11 -20 -31 -20 -44 0 -15 -7 -26 -17 -29 -17 -4
-17 -5 0 -6 14 -1 17 -11 17 -66 0 -37 4 -65 10 -65 6 0 10 28 10 64 0 59 2
65 23 69 l22 4 -22 2 c-19 1 -23 7 -23 32 0 19 7 37 18 45 9 7 14 14 10 14 -5
0 -17 -9 -28 -20z"/>
<path d="M744 2935 c-1 -89 1 -103 5 -55 6 59 8 65 34 74 38 14 48 -1 57 -76
l8 -63 -2 69 c-1 81 -15 98 -65 79 l-30 -11 -4 52 c-2 28 -3 -3 -3 -69z"/>
<path d="M2020 2934 c0 -63 4 -113 9 -110 4 3 6 28 3 55 -4 44 -2 51 21 66 16
10 34 14 47 10 17 -6 20 -15 20 -71 0 -36 4 -64 10 -64 15 0 12 113 -3 135
-14 18 -38 18 -78 1 -14 -6 -16 0 -11 43 3 34 1 51 -7 51 -7 0 -11 -36 -11
-116z"/>
<path d="M5108 3044 c-5 -4 -8 -56 -8 -116 0 -105 1 -108 23 -108 14 0 18 3
10 8 -8 5 -13 45 -15 116 -2 59 -6 104 -10 100z"/>
<path d="M5180 2935 c0 -85 3 -115 13 -115 9 0 11 28 9 115 -2 63 -7 115 -13
115 -5 0 -9 -50 -9 -115z"/>
<path d="M6634 2941 c1 -82 5 -116 14 -119 7 -2 10 2 6 11 -3 8 -9 61 -13 118
l-9 104 2 -114z"/>
<path d="M6960 2935 c0 -65 2 -116 5 -113 7 7 8 219 1 226 -4 3 -6 -48 -6
-113z"/>
<path d="M8412 2938 c3 -104 5 -113 23 -115 11 -2 14 0 8 3 -9 4 -13 37 -13
115 0 68 -4 109 -10 109 -7 0 -10 -40 -8 -112z"/>
<path d="M8910 3005 c0 -43 -1 -45 -24 -39 -51 13 -91 -33 -80 -92 8 -44 41
-63 79 -46 19 9 25 9 26 -1 0 -6 5 2 10 18 11 37 10 205 -2 205 -5 0 -9 -20
-9 -45z m-16 -51 c12 -4 16 -20 16 -55 0 -44 -3 -51 -26 -61 -23 -11 -29 -10
-45 11 -23 28 -24 59 -3 89 16 23 30 27 58 16z"/>
<path d="M9062 2938 c3 -104 5 -113 23 -115 11 -2 14 0 8 3 -9 4 -13 37 -13
115 0 68 -4 109 -10 109 -7 0 -10 -40 -8 -112z"/>
<path d="M12362 2938 c2 -63 7 -113 13 -115 6 -2 9 38 7 112 -2 66 -7 115 -13
115 -6 0 -9 -44 -7 -112z"/>
<path d="M13314 2930 c-1 -90 1 -107 5 -60 6 59 8 65 34 74 38 14 50 -2 58
-72 l7 -57 -2 70 -1 70 -47 -2 -47 -1 -4 51 c-2 29 -3 -4 -3 -73z"/>
<path d="M6715 3030 c-3 -5 -1 -10 4 -10 6 0 11 5 11 10 0 6 -2 10 -4 10 -3 0
-8 -4 -11 -10z"/>
<path d="M7245 3030 c-3 -5 1 -10 10 -10 9 0 13 5 10 10 -3 6 -8 10 -10 10 -2
0 -7 -4 -10 -10z"/>
<path d="M4155 3020 c3 -5 8 -10 11 -10 2 0 4 5 4 10 0 6 -5 10 -11 10 -5 0
-7 -4 -4 -10z"/>
<path d="M5020 3020 c0 -5 4 -10 9 -10 6 0 13 5 16 10 3 6 -1 10 -9 10 -9 0
-16 -4 -16 -10z"/>
<path d="M10260 3020 c0 -5 5 -10 10 -10 6 0 10 5 10 10 0 6 -4 10 -10 10 -5
0 -10 -4 -10 -10z"/>
<path d="M10480 3020 c0 -5 5 -10 10 -10 6 0 10 5 10 10 0 6 -4 10 -10 10 -5
0 -10 -4 -10 -10z"/>
<path d="M13120 3020 c0 -5 5 -10 11 -10 5 0 7 5 4 10 -3 6 -8 10 -11 10 -2 0
-4 -4 -4 -10z"/>
<path d="M7823 3005 c-3 -9 -3 -28 0 -44 5 -21 1 -34 -14 -47 -27 -25 -21 -64
13 -83 23 -13 32 -13 62 -3 28 10 40 10 58 1 22 -11 22 -11 7 7 -9 11 -16 32
-14 49 1 17 0 20 -2 8 -2 -13 -8 -23 -13 -23 -15 0 -91 103 -88 119 4 20 48
27 59 9 7 -10 9 -9 9 5 0 23 -68 25 -77 2z m49 -112 c35 -33 35 -49 3 -57 -37
-9 -65 9 -65 43 0 49 20 54 62 14z"/>
<path d="M11054 3005 c-4 -8 -4 -27 -1 -42 3 -18 -2 -36 -14 -52 -23 -29 -24
-54 -3 -75 18 -18 66 -21 96 -5 14 8 23 8 31 0 19 -19 31 -12 14 7 -10 10 -15
21 -13 23 10 12 15 59 6 59 -5 0 -10 -9 -10 -19 0 -11 -4 -22 -10 -26 -13 -8
-92 94 -88 114 4 20 48 27 60 9 8 -10 9 -10 5 2 -5 21 -65 26 -73 5z m50 -114
c34 -36 29 -61 -12 -61 -33 0 -52 16 -52 45 0 20 17 45 30 45 4 0 19 -13 34
-29z"/>
<path d="M1085 2995 c-5 -11 -13 -23 -19 -27 -8 -6 -8 -10 0 -15 6 -5 13 -32
16 -62 5 -55 18 -71 53 -70 16 1 15 2 -5 8 -22 6 -25 13 -28 64 -3 52 -1 58
20 67 23 9 23 9 1 9 -14 1 -23 9 -26 24 -3 21 -4 21 -12 2z"/>
<path d="M1920 2990 c0 -12 -7 -20 -17 -20 -17 -1 -17 -1 0 -11 13 -7 17 -23
17 -62 0 -57 12 -77 45 -76 19 0 19 1 -2 9 -20 8 -23 16 -23 70 0 55 2 60 23
61 21 1 21 1 -3 8 -15 4 -24 14 -24 24 1 9 -2 17 -7 17 -5 0 -9 -9 -9 -20z"/>
<path d="M7140 2990 c0 -12 -7 -20 -17 -20 -17 -1 -17 -1 0 -11 13 -8 17 -23
17 -68 0 -60 8 -72 48 -70 12 0 10 3 -5 9 -20 8 -23 16 -23 69 0 54 2 60 23
64 l22 4 -22 2 c-16 1 -23 7 -23 21 0 11 -4 20 -10 20 -5 0 -10 -9 -10 -20z"/>
<path d="M13211 2983 c0 -15 -8 -23 -18 -23 -17 -1 -17 -1 0 -11 13 -8 17 -23
17 -68 0 -63 15 -82 48 -60 15 9 15 10 1 6 -27 -9 -39 14 -39 69 0 47 3 53 23
57 22 4 22 4 0 6 -14 1 -23 9 -26 24 l-4 22 -2 -22z"/>
<path d="M14080 2981 c0 -11 -8 -22 -17 -24 -17 -4 -17 -5 0 -6 14 -1 17 -11
17 -52 0 -60 13 -89 40 -89 26 0 26 16 0 23 -17 4 -20 14 -20 60 0 50 2 56 23
60 l22 4 -22 2 c-16 1 -23 7 -23 21 0 11 -4 20 -10 20 -5 0 -10 -9 -10 -19z"/>
<path d="M570 2935 c-6 -124 -6 -185 2 -185 4 0 8 18 8 40 0 39 1 39 30 33 54
-10 93 51 71 111 -13 33 -36 42 -72 29 -20 -8 -29 -8 -33 1 -2 6 -5 -7 -6 -29z
m84 9 c22 -22 20 -70 -4 -94 -39 -39 -70 -18 -70 47 0 57 39 82 74 47z"/>
<path d="M926 2957 c-9 -7 -20 -31 -23 -54 -4 -33 -1 -45 16 -62 44 -44 111
-12 111 54 0 60 -58 95 -104 62z m72 -9 c17 -17 15 -84 -4 -102 -50 -51 -107
42 -61 102 12 15 49 16 65 0z"/>
<path d="M1202 2954 c-17 -12 -22 -25 -22 -58 0 -47 10 -61 51 -71 58 -14 104
80 60 124 -25 25 -58 27 -89 5z m72 -10 c33 -32 11 -114 -30 -114 -8 0 -24 10
-35 21 -17 17 -20 29 -15 57 8 51 47 69 80 36z"/>
<path d="M1362 2958 c-21 -21 -13 -47 21 -64 40 -21 49 -34 34 -52 -7 -9 -23
-12 -47 -9 -31 5 -32 4 -12 -6 35 -16 77 2 77 33 0 19 -9 29 -37 43 -21 9 -38
24 -38 32 0 16 43 31 59 20 6 -3 11 -1 11 4 0 15 -53 14 -68 -1z"/>
<path d="M1579 2951 c-49 -40 -18 -131 46 -131 60 0 84 107 31 142 -19 13 -53
9 -77 -11z m75 -7 c23 -22 20 -77 -4 -99 -46 -42 -102 35 -66 90 19 29 47 32
70 9z"/>
<path d="M2212 2954 c-17 -12 -22 -25 -22 -59 0 -34 5 -47 22 -59 26 -18 56
-20 78 -6 11 7 6 8 -16 4 -25 -5 -37 -1 -54 16 -31 31 -20 45 33 45 42 0 47 3
47 22 0 26 -25 53 -48 53 -10 0 -28 -7 -40 -16z m62 -10 c26 -25 19 -34 -30
-34 -33 0 -43 3 -38 13 24 41 42 47 68 21z"/>
<path d="M2440 2960 c-11 -8 -8 -9 13 -4 31 7 57 -9 57 -37 0 -15 -7 -19 -33
-19 -39 0 -57 -15 -57 -47 0 -27 38 -40 68 -24 14 7 23 8 27 1 3 -5 11 -10 18
-10 8 0 8 3 -1 12 -7 7 -12 35 -12 63 0 28 -5 56 -12 63 -15 15 -48 15 -68 2z
m70 -84 c0 -19 -27 -46 -46 -46 -17 0 -28 24 -20 45 7 20 66 20 66 1z"/>
<path d="M2581 2898 c-1 -46 3 -78 9 -78 6 0 10 24 10 54 0 53 16 86 42 86 6
0 8 3 5 6 -4 4 -17 -1 -31 -9 -23 -15 -25 -15 -29 1 -3 9 -5 -18 -6 -60z"/>
<path d="M2700 2950 c-23 -23 -28 -91 -7 -108 21 -18 65 -24 84 -13 15 9 12
10 -13 5 -24 -5 -37 -1 -53 15 -32 32 -26 41 29 41 46 0 50 2 50 24 0 51 -53
73 -90 36z m64 -6 c25 -24 19 -32 -25 -36 -47 -4 -58 6 -33 33 21 23 37 24 58
3z"/>
<path d="M2850 2960 c-11 -7 -6 -8 17 -4 25 5 33 2 43 -15 13 -26 6 -41 -21
-41 -34 0 -59 -19 -59 -45 0 -27 1 -28 72 -29 30 -1 44 2 38 8 -6 6 -10 33
-10 61 0 28 -5 56 -12 63 -14 14 -47 15 -68 2z m70 -90 c0 -22 -34 -44 -56
-36 -14 6 -19 37 -7 49 3 4 19 7 35 7 21 0 28 -5 28 -20z"/>
<path d="M4252 2954 c-24 -16 -29 -53 -10 -72 8 -8 8 -15 -1 -25 -6 -8 -9 -21
-5 -30 3 -8 1 -18 -5 -22 -16 -10 -13 -42 5 -49 35 -13 91 -6 110 15 28 31 8
53 -50 57 -38 3 -47 6 -44 20 2 11 15 18 36 20 36 4 57 31 47 62 -5 15 -2 20
11 20 28 0 12 7 -32 13 -28 5 -47 2 -62 -9z m58 -8 c6 -8 10 -25 8 -38 -4 -30
-46 -38 -65 -12 -17 23 -16 29 3 48 19 20 38 20 54 2z m30 -142 c2 -3 -1 -13
-6 -22 -16 -25 -87 -24 -92 2 -2 10 2 23 10 28 12 8 77 2 88 -8z"/>
<path d="M4470 2966 c0 -4 7 -14 15 -22 10 -10 15 -35 15 -70 0 -30 4 -54 8
-54 5 0 8 28 8 61 -1 52 -4 64 -23 76 -13 9 -23 12 -23 9z"/>
<path d="M5403 2954 c22 -12 28 -21 25 -42 -2 -22 -9 -28 -35 -30 -28 -3 -33
1 -39 23 -4 15 -1 31 6 40 11 13 10 14 -3 10 -18 -8 -29 -43 -18 -64 9 -19 7
-69 -3 -93 -14 -32 1 -48 44 -48 53 0 80 15 80 44 0 27 -17 36 -65 36 -19 0
-36 4 -39 9 -7 11 20 34 32 27 5 -3 22 4 37 15 20 17 25 27 21 45 -5 18 -2 24
10 24 30 0 11 7 -36 13 -45 7 -45 7 -17 -9z m42 -154 c11 -18 -16 -40 -50 -40
-34 0 -61 22 -50 40 3 5 26 10 50 10 24 0 47 -5 50 -10z"/>
<path d="M6723 2895 c0 -44 2 -61 4 -37 2 23 2 59 0 80 -2 20 -4 1 -4 -43z"/>
<path d="M6802 2958 c-15 -15 -15 -51 0 -66 8 -8 8 -15 -1 -25 -21 -26 -2 -46
47 -49 39 -3 47 -6 47 -23 0 -17 -7 -20 -50 -20 -43 0 -50 3 -48 19 1 12 -2
15 -9 8 -17 -17 -2 -39 29 -45 40 -8 82 3 93 23 17 32 1 49 -51 56 -32 4 -49
11 -49 20 0 8 10 14 23 14 12 0 33 7 46 16 18 13 22 23 17 45 -4 21 -1 29 12
32 9 3 -8 5 -38 6 -32 0 -61 -4 -68 -11z m76 -15 c16 -31 -4 -63 -41 -63 -25
0 -44 45 -27 65 17 20 57 19 68 -2z"/>
<path d="M6996 2961 c-4 -5 3 -7 14 -4 35 9 50 -14 50 -79 0 -37 4 -57 10 -53
13 8 13 101 0 126 -11 20 -64 27 -74 10z"/>
<path d="M7253 2895 c0 -44 2 -61 4 -37 2 23 2 59 0 80 -2 20 -4 1 -4 -43z"/>
<path d="M7330 2895 c0 -43 2 -76 4 -74 8 7 10 139 3 146 -4 3 -7 -29 -7 -72z"/>
<path d="M7366 2961 c-3 -4 5 -6 17 -4 33 6 45 -14 50 -82 l3 -60 2 66 c1 40
-3 70 -10 77 -14 14 -54 16 -62 3z"/>
<path d="M7511 2957 c-9 -11 -10 -62 -2 -129 1 -5 18 -8 39 -8 20 0 43 -4 50
-8 20 -13 4 -40 -28 -44 -39 -6 -74 8 -66 27 3 8 1 15 -4 15 -6 0 -10 -9 -10
-20 0 -30 42 -46 88 -34 32 8 37 13 37 39 0 28 -3 30 -48 37 -27 4 -51 9 -54
12 -10 10 9 26 31 26 40 0 73 42 55 71 -6 10 -2 16 14 21 14 4 1 6 -34 7 -36
1 -61 -4 -68 -12z m69 -12 c15 -18 10 -45 -12 -59 -33 -20 -69 20 -54 60 7 18
50 18 66 -1z"/>
<path d="M8074 2905 c1 -67 2 -70 29 -79 20 -7 30 -6 40 3 10 11 8 12 -8 7
-35 -10 -50 9 -56 76 l-6 63 1 -70z"/>
<path d="M8169 2906 c-2 -37 -1 -73 3 -80 4 -6 8 -9 8 -6 7 55 7 103 1 126 -7
24 -9 17 -12 -40z"/>
<path d="M8240 2862 c0 -73 4 -111 10 -107 6 3 10 22 10 40 0 33 2 34 29 29
41 -8 71 23 71 75 0 45 -20 71 -53 70 l-22 0 23 -9 c26 -11 45 -55 37 -87 -7
-28 -39 -46 -65 -38 -17 5 -20 16 -20 58 0 29 -5 59 -10 67 -7 10 -10 -21 -10
-98z"/>
<path d="M8506 2954 c-51 -50 -19 -133 52 -134 49 0 72 105 30 134 -29 20 -62
20 -82 0z m83 -25 c19 -34 7 -76 -24 -91 -34 -15 -65 12 -65 58 0 63 60 85 89
33z"/>
<path d="M8697 2963 c51 -10 56 -63 5 -63 -15 0 -33 -5 -40 -12 -33 -33 9 -80
54 -59 15 6 25 7 29 1 4 -6 11 -10 18 -10 8 0 8 3 -1 12 -7 7 -12 35 -12 63 0
57 -12 76 -49 74 -23 -2 -23 -2 -4 -6z m43 -93 c0 -22 -34 -44 -56 -36 -14 6
-19 37 -7 49 3 4 19 7 35 7 21 0 28 -5 28 -20z"/>
<path d="M9149 2949 c-17 -17 -20 -29 -16 -61 6 -48 12 -55 52 -63 28 -5 29
-5 5 5 -31 14 -40 28 -40 67 0 31 21 63 41 63 45 0 72 -64 45 -105 -19 -28
-15 -32 8 -9 25 24 21 90 -6 108 -31 22 -64 20 -89 -5z"/>
<path d="M9317 2952 c-18 -20 -22 -48 -9 -56 10 -6 8 -73 -2 -83 -12 -12 -6
-51 10 -57 50 -19 118 9 112 47 -2 18 -11 23 -52 27 -27 3 -51 11 -54 17 -4
13 3 17 51 27 31 7 50 42 36 68 -7 12 -4 18 9 21 9 3 -6 5 -34 6 -38 1 -55 -4
-67 -17z m73 -7 c15 -18 10 -45 -12 -59 -33 -20 -69 20 -54 60 7 18 50 18 66
-1z m18 -152 c3 -21 -1 -23 -42 -23 -48 0 -60 8 -50 35 5 12 17 15 48 13 34
-2 42 -7 44 -25z"/>
<path d="M9480 2950 c-23 -23 -27 -77 -7 -103 6 -9 26 -19 42 -22 29 -5 29 -5
5 5 -13 6 -28 16 -32 23 -12 19 -9 82 4 95 31 31 88 -3 88 -53 0 -11 -7 -31
-16 -43 -18 -26 -12 -29 10 -6 39 39 5 124 -49 124 -14 0 -34 -9 -45 -20z"/>
<path d="M10032 2959 c-12 -5 -29 -6 -37 -3 -12 5 -14 -10 -13 -100 0 -58 5
-106 9 -106 5 0 9 17 9 38 0 38 0 38 35 34 19 -2 42 1 49 8 35 29 26 122 -13
133 -9 2 -27 0 -39 -4z m46 -21 c16 -16 15 -70 -1 -92 -9 -12 -23 -17 -42 -14
-28 3 -30 6 -33 52 -3 52 6 66 44 66 11 0 25 -5 32 -12z"/>
<path d="M10183 2949 c-31 -19 -33 -25 -33 -75 0 -72 18 -69 22 4 3 48 7 59
26 67 12 5 22 13 22 17 0 11 -1 11 -37 -13z"/>
<path d="M10630 2960 c0 -4 7 -10 15 -14 11 -4 15 -21 15 -66 0 -68 15 -83 19
-19 3 60 -7 96 -30 102 -10 3 -19 2 -19 -3z"/>
<path d="M11350 2960 c-8 -5 -23 -7 -32 -4 -16 5 -18 -4 -18 -100 0 -64 4
-106 10 -106 6 0 10 17 10 38 0 37 1 38 33 34 46 -5 67 18 67 73 0 34 -5 47
-22 59 -26 19 -28 19 -48 6z m54 -43 c15 -41 -10 -82 -49 -82 -29 0 -30 2 -33
49 -4 54 7 68 48 64 17 -2 28 -12 34 -31z"/>
<path d="M11514 2955 c-18 -14 -18 -14 4 -8 12 3 22 9 22 14 0 12 -3 11 -26
-6z"/>
<path d="M11585 2945 c-27 -26 -31 -54 -14 -88 16 -29 28 -37 60 -37 35 0 59
29 59 73 0 70 -59 99 -105 52z m89 -29 c15 -41 -3 -80 -39 -84 -35 -4 -55 18
-55 64 0 64 73 79 94 20z"/>
<path d="M11800 2961 c0 -5 9 -11 20 -14 26 -7 37 -54 19 -86 -16 -29 -53 -39
-75 -21 -22 19 -18 86 7 103 20 15 20 15 -5 13 l-26 -1 2 -105 c1 -58 3 -86 5
-63 4 41 4 42 39 36 46 -8 74 17 74 67 0 20 -6 43 -12 52 -15 18 -48 31 -48
19z"/>
<path d="M11927 2949 c-33 -25 -38 -86 -9 -112 27 -25 78 -22 96 5 49 69 -23
158 -87 107z m61 -5 c16 -11 22 -25 22 -53 0 -42 -14 -61 -47 -61 -49 0 -69
94 -25 120 23 13 24 12 50 -6z"/>
<path d="M12092 2959 c-14 -5 -22 -17 -22 -32 0 -19 9 -27 41 -40 56 -22 51
-50 -11 -58 -44 -6 -44 -6 -8 -7 51 -3 68 6 68 34 0 18 -10 28 -37 42 -48 22
-49 45 -3 52 27 4 31 7 15 11 -12 3 -31 2 -43 -2z"/>
<path d="M12230 2959 c-22 -6 -21 -7 11 -8 24 -1 39 -7 43 -17 10 -27 7 -34
-16 -35 l-23 0 23 -9 c38 -16 21 -60 -24 -60 -28 0 -38 25 -17 46 15 15 15 16
-3 12 -14 -2 -19 -12 -19 -33 0 -30 0 -30 59 -31 32 -1 53 1 48 5 -6 4 -12 33
-14 65 -3 65 -19 80 -68 65z"/>
<path d="M4014 2946 c-11 -29 1 -49 36 -61 51 -17 48 -48 -5 -56 l-40 -7 45 2
c41 1 45 3 48 29 3 23 -2 30 -32 42 -48 20 -50 52 -3 58 31 4 31 4 -6 5 -25 1
-40 -3 -43 -12z"/>
<path d="M4161 2893 c0 -40 2 -73 7 -73 4 0 6 24 4 52 -5 89 -9 97 -11 21z"/>
<path d="M4403 2890 c1 -63 1 -66 4 -20 3 30 10 61 16 69 9 11 9 13 0 8 -6 -4
-14 -1 -16 5 -3 7 -5 -21 -4 -62z"/>
<path d="M4577 2953 c-4 -3 -7 -17 -7 -30 0 -17 9 -27 36 -38 49 -20 43 -48
-11 -56 l-40 -6 40 -1 c53 -2 69 9 61 41 -4 18 -17 29 -42 37 -46 15 -43 43 6
51 l35 6 -36 2 c-20 0 -39 -2 -42 -6z"/>
<path d="M4793 2890 c11 -38 25 -70 32 -70 7 0 20 27 30 60 10 32 21 57 25 55
4 -2 12 -29 19 -60 7 -30 18 -55 25 -55 7 0 20 26 30 58 10 31 21 64 24 72 3
10 2 12 -5 5 -6 -5 -19 -37 -28 -70 l-18 -60 -18 64 c-10 35 -20 66 -23 68
-11 11 -24 -9 -36 -54 -18 -67 -27 -72 -40 -22 -19 73 -21 79 -30 79 -4 0 1
-31 13 -70z"/>
<path d="M5020 2890 c0 -40 4 -70 10 -70 6 0 10 30 10 70 0 40 -4 70 -10 70
-6 0 -10 -30 -10 -70z"/>
<path d="M5506 2938 c-9 -12 -16 -34 -16 -48 0 -44 26 -70 70 -70 29 0 42 5
50 19 15 29 12 87 -6 105 -24 24 -80 20 -98 -6z m92 -13 c16 -35 15 -55 -5
-77 -21 -24 -60 -23 -73 1 -14 26 -13 74 2 89 22 22 64 14 76 -13z"/>
<path d="M10260 2890 c0 -40 4 -70 10 -70 6 0 10 30 10 70 0 40 -4 70 -10 70
-6 0 -10 -30 -10 -70z"/>
<path d="M10346 2938 c-9 -12 -16 -34 -16 -48 0 -46 26 -70 73 -69 l42 1 -39
8 c-44 8 -56 22 -56 66 0 37 13 51 55 57 28 4 27 4 -7 6 -28 1 -41 -4 -52 -21z"/>
<path d="M10488 2890 c-2 -39 0 -70 5 -70 4 0 7 32 7 70 0 39 -2 70 -4 70 -2
0 -6 -32 -8 -70z"/>
<path d="M10560 2888 c0 -38 4 -68 8 -68 4 0 6 16 4 35 -6 50 4 80 30 92 21 9
21 10 -9 9 l-33 -1 0 -67z"/>
<path d="M10741 2947 c-6 -8 -9 -40 -7 -75 2 -34 0 -65 -5 -68 -15 -9 -10 -41
7 -48 59 -23 136 14 114 54 -8 15 -21 20 -55 20 -38 0 -45 3 -45 20 0 15 7 20
29 20 27 0 61 22 61 38 -1 30 -15 52 -33 52 -20 0 -20 -1 -3 -13 11 -8 17 -23
14 -38 -4 -31 -46 -39 -65 -13 -17 23 -16 29 3 48 8 9 11 16 6 16 -5 0 -14 -6
-21 -13z m85 -142 c19 -15 19 -15 0 -30 -43 -33 -116 -6 -81 29 21 20 55 21
81 1z"/>
<path d="M11470 2892 c0 -40 3 -72 8 -72 9 0 8 128 -1 137 -4 3 -7 -26 -7 -65z"/>
<path d="M12886 2913 c8 -27 17 -58 20 -70 10 -37 32 -27 44 20 22 86 26 87
45 20 10 -35 23 -63 29 -63 7 0 20 26 30 58 10 31 21 63 23 70 3 6 1 12 -4 12
-6 0 -16 -25 -23 -55 -7 -31 -17 -58 -21 -61 -4 -2 -15 23 -25 56 -9 34 -22
59 -28 57 -6 -2 -18 -27 -26 -55 -9 -28 -19 -54 -22 -57 -4 -4 -14 21 -24 54
-9 34 -20 61 -25 61 -4 0 -1 -21 7 -47z"/>
<path d="M13120 2890 c0 -40 4 -70 10 -70 6 0 10 30 10 70 0 40 -4 70 -10 70
-6 0 -10 -30 -10 -70z"/>
<path d="M13566 2944 c-39 -39 -24 -117 24 -121 24 -3 24 -2 3 7 -31 13 -42
74 -18 100 23 25 47 25 68 2 23 -25 21 -68 -3 -92 -14 -14 -16 -20 -6 -20 44
0 55 106 13 132 -20 13 -65 9 -81 -8z"/>
<path d="M13720 2895 c0 -59 2 -67 23 -74 12 -5 32 -5 44 0 13 5 29 6 37 3 11
-4 13 7 9 63 -7 84 -13 95 -13 21 0 -61 -14 -82 -52 -76 -17 2 -24 12 -31 43
-4 22 -6 50 -4 63 2 12 0 22 -4 22 -5 0 -9 -29 -9 -65z"/>
<path d="M13892 2890 c-3 -84 16 -96 20 -13 3 50 6 59 28 70 15 8 19 13 10 13
-9 0 -22 -6 -28 -12 -10 -10 -14 -10 -20 -1 -5 7 -9 -19 -10 -57z"/>
<path d="M14196 2944 c-56 -55 -4 -152 66 -124 20 8 19 9 -12 9 -40 1 -60 16
-60 43 0 15 9 18 50 18 43 0 50 3 50 19 0 45 -62 68 -94 35z m72 -19 c11 -25
11 -25 -33 -25 -46 0 -58 13 -33 38 21 21 54 14 66 -13z"/>
<path d="M14374 2951 c27 -6 49 -36 39 -53 -2 -5 -17 -8 -32 -8 -31 0 -51 -16
-51 -42 0 -25 29 -38 59 -27 16 6 28 6 35 -1 5 -5 15 -10 20 -10 6 0 5 5 -2
12 -7 7 -12 35 -12 63 0 59 -12 75 -54 74 l-31 -1 29 -7z m46 -84 c0 -20 -21
-37 -46 -37 -29 0 -39 16 -24 35 15 19 70 20 70 2z"/>
<path d="M14493 2890 c1 -68 1 -69 4 -17 4 50 7 59 28 69 42 19 55 5 55 -62 0
-33 4 -60 10 -60 6 0 10 27 10 60 0 55 2 60 25 66 38 9 54 -11 58 -74 3 -48 4
-46 3 13 l-1 70 -75 2 c-41 0 -83 -3 -92 -8 -11 -6 -18 -5 -21 4 -3 6 -5 -22
-4 -63z"/>
<path d="M7655 2841 c-3 -5 -1 -12 5 -16 7 -4 7 -13 -1 -28 -10 -21 -10 -21 5
-3 18 22 21 56 7 56 -6 0 -12 -4 -16 -9z"/>
<path d="M10894 2826 c3 -14 2 -28 -4 -31 -5 -3 -10 -12 -10 -18 0 -7 7 -3 15
7 18 23 20 66 4 66 -7 0 -9 -10 -5 -24z"/>
<path d="M1592 2298 c-21 -21 -14 -57 12 -70 14 -6 32 -8 40 -5 21 8 31 54 16
72 -15 18 -51 20 -68 3z"/>
<path d="M8002 2298 c-7 -7 -12 -21 -12 -33 0 -47 62 -63 81 -21 22 47 -33 90
-69 54z"/>
<path d="M11137 2303 c-11 -11 -8 -58 5 -71 33 -33 91 16 68 57 -10 20 -58 30
-73 14z m58 -35 c0 -28 -4 -33 -25 -33 -16 0 -26 6 -28 18 -6 29 6 47 31 47
19 0 23 -5 22 -32z"/>
<path d="M13757 2304 c-13 -13 -7 -61 8 -74 9 -7 25 -10 40 -6 23 6 26 11 23
44 -3 33 -6 37 -33 40 -17 2 -34 0 -38 -4z"/>
<path d="M4925 2241 c-6 -5 -19 -11 -30 -14 -19 -4 -19 -5 1 -6 12 0 27 6 34
14 14 16 10 20 -5 6z"/>
</g>
</svg>
